<svg width="91" height="69" viewBox="0 0 91 69" fill="none" xmlns="http://www.w3.org/2000/svg">
<path d="M47.7868 54.8933L14.8236 37.3775C14.0918 36.9886 14.0962 35.8326 14.9384 35.4614C26.5292 30.3516 33.5736 24.6024 37.4134 20.2221C37.7498 19.8383 38.4325 19.6186 39.1797 19.7402C39.9302 19.8624 40.3681 20.2559 40.4747 20.6593L49.2229 53.7547C49.4458 54.5982 48.5573 55.3027 47.7868 54.8933Z" fill="url(#paint0_linear_585_1264)" stroke="#94E6CD" stroke-width="2" stroke-linejoin="round"/>
<path d="M13.4365 35.4378C14.6002 31.4511 17.3255 25.9806 22.571 22.7414C28.0285 19.3714 34.3913 18.1024 38.5157 17.7671C38.8511 17.7398 39.0514 17.8864 39.1413 18.0326C39.2262 18.1704 39.2612 18.3815 39.0862 18.6392C36.0308 23.1369 28.5265 30.4841 14.4565 36.225C14.1088 36.3669 13.8062 36.2853 13.6215 36.1317C13.448 35.9875 13.3435 35.7565 13.4365 35.4378Z" fill="url(#paint1_linear_585_1264)" stroke="#C69253" stroke-width="2"/>
<ellipse cx="24.1821" cy="39.1274" rx="1.78183" ry="1.68902" transform="rotate(-17.4084 24.1821 39.1274)" fill="#CDF692"/>
<ellipse cx="38.0864" cy="27.6113" rx="1.78183" ry="1.68902" transform="rotate(-17.4084 38.0864 27.6113)" fill="#F5DDC7"/>
<ellipse cx="37.0268" cy="39.4926" rx="1.78183" ry="1.68902" transform="rotate(-17.4084 37.0268 39.4926)" fill="#CDF692"/>
<ellipse cx="42.7632" cy="45.8796" rx="1.78183" ry="1.68902" transform="rotate(-17.4084 42.7632 45.8796)" fill="#F2F9F5"/>
<ellipse cx="32.0473" cy="33.7468" rx="1.78183" ry="1.68902" transform="rotate(-17.4084 32.0473 33.7468)" fill="#D9D9D9"/>
<path d="M19.0264 10.6047L27.1749 27.8238C28.1941 27.7001 30.8506 26.777 33.3234 24.0744L28.8683 7.51888L23.3919 10.3145L19.0264 10.6047Z" fill="url(#paint2_linear_585_1264)" stroke="url(#paint3_linear_585_1264)" stroke-width="1.01264"/>
<path d="M8.9209 9.54541L25.9824 28.8594C25.4735 29.7177 23.45 31.5442 19.4272 31.9837L1.81176 16.5406L7.01924 13.3858L8.9209 9.54541Z" fill="url(#paint4_linear_585_1264)" stroke="url(#paint5_linear_585_1264)" stroke-width="1.01264"/>
<path d="M27.7041 15.168L31.798 23.8189C32.31 23.7568 33.6446 23.293 34.887 21.9352L32.6487 13.6176L29.8973 15.0222L27.7041 15.168Z" fill="url(#paint6_linear_585_1264)" stroke="url(#paint7_linear_585_1264)" stroke-width="1.01264"/>
<path d="M13.7373 16.8762L24.6109 29.4599C25.3674 29.1762 27.18 27.9468 28.3788 25.2987L20.5414 12.5938L17.0412 15.8565L13.7373 16.8762Z" fill="url(#paint8_linear_585_1264)" stroke="url(#paint9_linear_585_1264)" stroke-width="1.01264"/>
<path d="M56.262 53.0113L61.009 29.6089C61.1724 28.8032 62.2952 28.4533 62.9192 29.1619C67.6639 34.5498 72.0549 37.8149 75.4893 39.6798C75.9467 39.9281 76.3555 40.5891 76.4429 41.4129C76.5313 42.246 76.257 42.808 75.9075 43.0208L57.7619 54.0643C57.0166 54.5179 56.0885 53.8663 56.262 53.0113Z" fill="url(#paint10_linear_585_1264)" stroke="#94E6CD" stroke-width="2" stroke-linejoin="round"/>
<path d="M62.907 27.2862C65.7468 27.4212 69.4274 28.2801 72.2961 30.8437C75.3407 33.5645 77.3761 37.1443 78.5112 39.8188C78.6424 40.1279 78.5555 40.3305 78.471 40.4235C78.3949 40.5074 78.2357 40.6002 77.945 40.4918C74.3418 39.1488 68.5509 35.6859 62.4976 28.3662C62.2587 28.0772 62.2593 27.7817 62.343 27.5916C62.4186 27.4198 62.5837 27.2708 62.907 27.2862Z" fill="url(#paint11_linear_585_1264)" stroke="#C69253" stroke-width="2"/>
<ellipse cx="61.6723" cy="35.0273" rx="1.26377" ry="1.19795" transform="rotate(56.073 61.6723 35.0273)" fill="#CDF692"/>
<ellipse cx="72.3071" cy="42.1594" rx="1.26377" ry="1.19795" transform="rotate(56.073 72.3071 42.1594)" fill="#F5DDC7"/>
<ellipse cx="64.0141" cy="43.8349" rx="1.26377" ry="1.19795" transform="rotate(56.073 64.0141 43.8349)" fill="#CDF692"/>
<ellipse cx="60.8285" cy="49.0234" rx="1.26377" ry="1.19795" transform="rotate(56.073 60.8285 49.0234)" fill="#F2F9F5"/>
<ellipse cx="66.9174" cy="39.29" rx="1.26377" ry="1.19795" transform="rotate(56.073 66.9174 39.29)" fill="#D9D9D9"/>
<path d="M80.0273 25.7698L69.9619 34.783C70.2516 35.4511 71.415 37.0713 73.7514 38.2078L84.1104 31.8398L81.105 28.6797L80.0273 25.7698Z" fill="url(#paint12_linear_585_1264)" stroke="url(#paint13_linear_585_1264)" stroke-width="1.01264"/>
<path d="M78.71 18.6841L69.0174 34.1804C68.3312 34.0075 66.6811 32.9999 65.571 30.353L72.5198 15.2606L75.7151 18.1654L78.71 18.6841Z" fill="url(#paint14_linear_585_1264)" stroke="url(#paint15_linear_585_1264)" stroke-width="1.01264"/>
<path d="M78.6748 32.5901L73.6179 37.1184C73.7634 37.454 74.3479 38.268 75.5217 38.839L80.7261 35.6397L79.2162 34.0521L78.6748 32.5901Z" fill="url(#paint16_linear_585_1264)" stroke="url(#paint17_linear_585_1264)" stroke-width="1.01264"/>
<path d="M74.6963 23.4382L68.3324 33.3697C68.6779 33.8269 69.8794 34.8115 71.9218 35.0927L78.9804 27.2013L76.056 25.4792L74.6963 23.4382Z" fill="url(#paint18_linear_585_1264)" stroke="url(#paint19_linear_585_1264)" stroke-width="1.01264"/>
<defs>
<linearGradient id="paint0_linear_585_1264" x1="23.4762" y1="19.8921" x2="36.8293" y2="62.4798" gradientUnits="userSpaceOnUse">
<stop stop-color="#94E6CD"/>
<stop offset="0.58125" stop-color="#A1EDC8"/>
<stop offset="1" stop-color="#C3FFB9"/>
</linearGradient>
<linearGradient id="paint1_linear_585_1264" x1="24.2724" y1="20.1717" x2="28.3384" y2="33.1397" gradientUnits="userSpaceOnUse">
<stop stop-color="#EDC07D"/>
<stop offset="1" stop-color="#D9D9D9"/>
</linearGradient>
<linearGradient id="paint2_linear_585_1264" x1="23.9473" y1="9.06181" x2="29.6127" y2="27.1307" gradientUnits="userSpaceOnUse">
<stop stop-color="#FFD9C7"/>
<stop offset="0.732292" stop-color="#FFDAC2" stop-opacity="0.929167"/>
<stop offset="1" stop-color="#FFE27C" stop-opacity="0"/>
</linearGradient>
<linearGradient id="paint3_linear_585_1264" x1="23.9473" y1="9.06181" x2="29.5924" y2="27.0659" gradientUnits="userSpaceOnUse">
<stop stop-color="#FE9C96"/>
<stop offset="1" stop-color="#FFD9D7" stop-opacity="0"/>
</linearGradient>
<linearGradient id="paint4_linear_585_1264" x1="5.36633" y1="13.043" x2="23.48" y2="31.4518" gradientUnits="userSpaceOnUse">
<stop stop-color="#FFD9C7"/>
<stop offset="0.732292" stop-color="#FFDAC2" stop-opacity="0.929167"/>
<stop offset="1" stop-color="#FFE27C" stop-opacity="0"/>
</linearGradient>
<linearGradient id="paint5_linear_585_1264" x1="5.36633" y1="13.043" x2="23.415" y2="31.3857" gradientUnits="userSpaceOnUse">
<stop stop-color="#FE9C96"/>
<stop offset="1" stop-color="#FFD9D7" stop-opacity="0"/>
</linearGradient>
<linearGradient id="paint6_linear_585_1264" x1="30.1764" y1="14.3928" x2="33.0227" y2="23.4707" gradientUnits="userSpaceOnUse">
<stop stop-color="#9CEAC9"/>
<stop offset="0.779167" stop-color="#B3F6C0" stop-opacity="0.78"/>
<stop offset="1" stop-color="#FFE27C" stop-opacity="0"/>
</linearGradient>
<linearGradient id="paint7_linear_585_1264" x1="30.1764" y1="14.3928" x2="33.0125" y2="23.4381" gradientUnits="userSpaceOnUse">
<stop stop-color="#9CEAC9"/>
<stop offset="1" stop-color="#A0ECC8" stop-opacity="0"/>
</linearGradient>
<linearGradient id="paint8_linear_585_1264" x1="17.1394" y1="14.735" x2="25.929" y2="28.7003" gradientUnits="userSpaceOnUse">
<stop stop-color="#9CEAC9"/>
<stop offset="0.779167" stop-color="#B3F6C0" stop-opacity="0.78"/>
<stop offset="1" stop-color="#FFE27C" stop-opacity="0"/>
</linearGradient>
<linearGradient id="paint9_linear_585_1264" x1="17.1394" y1="14.735" x2="25.8975" y2="28.6502" gradientUnits="userSpaceOnUse">
<stop stop-color="#9CEAC9"/>
<stop offset="1" stop-color="#A0ECC8" stop-opacity="0"/>
</linearGradient>
<linearGradient id="paint10_linear_585_1264" x1="74.6102" y1="30.6685" x2="48.3441" y2="48.3366" gradientUnits="userSpaceOnUse">
<stop stop-color="#94E6CD"/>
<stop offset="0.58125" stop-color="#A1EDC8"/>
<stop offset="1" stop-color="#C3FFB9"/>
</linearGradient>
<linearGradient id="paint11_linear_585_1264" x1="74.5803" y1="31.2656" x2="66.5822" y2="36.6455" gradientUnits="userSpaceOnUse">
<stop stop-color="#EDC07D"/>
<stop offset="1" stop-color="#D9D9D9"/>
</linearGradient>
<linearGradient id="paint12_linear_585_1264" x1="82.0689" y1="28.8048" x2="70.9248" y2="36.3009" gradientUnits="userSpaceOnUse">
<stop stop-color="#FFD9C7"/>
<stop offset="0.732292" stop-color="#FFDAC2" stop-opacity="0.929167"/>
<stop offset="1" stop-color="#FFE27C" stop-opacity="0"/>
</linearGradient>
<linearGradient id="paint13_linear_585_1264" x1="82.0689" y1="28.8048" x2="70.9648" y2="36.274" gradientUnits="userSpaceOnUse">
<stop stop-color="#FE9C96"/>
<stop offset="1" stop-color="#FFD9D7" stop-opacity="0"/>
</linearGradient>
<linearGradient id="paint14_linear_585_1264" x1="75.6149" y1="16.9724" x2="66.75" y2="33.0016" gradientUnits="userSpaceOnUse">
<stop stop-color="#FFD9C7"/>
<stop offset="0.732292" stop-color="#FFDAC2" stop-opacity="0.929167"/>
<stop offset="1" stop-color="#FFE27C" stop-opacity="0"/>
</linearGradient>
<linearGradient id="paint15_linear_585_1264" x1="75.6149" y1="16.9724" x2="66.7818" y2="32.9441" gradientUnits="userSpaceOnUse">
<stop stop-color="#FE9C96"/>
<stop offset="1" stop-color="#FFD9D7" stop-opacity="0"/>
</linearGradient>
<linearGradient id="paint16_linear_585_1264" x1="79.7005" y1="34.1149" x2="74.1017" y2="37.881" gradientUnits="userSpaceOnUse">
<stop stop-color="#9CEAC9"/>
<stop offset="0.779167" stop-color="#B3F6C0" stop-opacity="0.78"/>
<stop offset="1" stop-color="#FFE27C" stop-opacity="0"/>
</linearGradient>
<linearGradient id="paint17_linear_585_1264" x1="79.7005" y1="34.1149" x2="74.1218" y2="37.8674" gradientUnits="userSpaceOnUse">
<stop stop-color="#9CEAC9"/>
<stop offset="1" stop-color="#A0ECC8" stop-opacity="0"/>
</linearGradient>
<linearGradient id="paint18_linear_585_1264" x1="76.8383" y1="25.3198" x2="69.1147" y2="34.1128" gradientUnits="userSpaceOnUse">
<stop stop-color="#9CEAC9"/>
<stop offset="0.779167" stop-color="#B3F6C0" stop-opacity="0.78"/>
<stop offset="1" stop-color="#FFE27C" stop-opacity="0"/>
</linearGradient>
<linearGradient id="paint19_linear_585_1264" x1="76.8383" y1="25.3198" x2="69.1425" y2="34.0813" gradientUnits="userSpaceOnUse">
<stop stop-color="#9CEAC9"/>
<stop offset="1" stop-color="#A0ECC8" stop-opacity="0"/>
</linearGradient>
</defs>
</svg>
