<svg width="19" height="19" viewBox="0 0 19 19" fill="none" xmlns="http://www.w3.org/2000/svg">
<path d="M15.7808 0.465576C15.3701 0.466571 14.9637 0.548876 14.585 0.707745C14.2062 0.866613 13.8627 1.0989 13.5742 1.3912L1.56685 13.3978L1.51977 13.6355L0.689061 17.8118L0.452148 18.9265L1.56761 18.6896L5.74395 17.8589L5.98086 17.811L17.9882 5.80446C18.2813 5.51646 18.5141 5.17297 18.673 4.79405C18.8319 4.41512 18.9137 4.00834 18.9137 3.59745C18.9137 3.18656 18.8319 2.77978 18.673 2.40085C18.5141 2.02193 18.2813 1.67844 17.9882 1.39044C17.6996 1.09819 17.3559 0.865988 16.977 0.707248C16.5982 0.548509 16.1916 0.466371 15.7808 0.465576ZM15.7808 1.91287C16.1635 1.91287 16.5493 2.08751 16.9198 2.45883C17.6587 3.1969 17.6587 3.998 16.9198 4.73683L16.3746 5.25849L14.1194 3.00403L14.6418 2.45883C15.0131 2.08751 15.3981 1.91287 15.7808 1.91287ZM13.0525 4.07241L15.3062 6.32688L6.12362 15.5087C5.62788 14.5388 4.83865 13.7501 3.86839 13.255L13.0525 4.07241ZM2.89645 14.4897C3.34585 14.6705 3.75407 14.9403 4.0966 15.2828C4.43913 15.6253 4.7089 16.0336 4.8897 16.483L2.39756 16.9811L2.89645 14.4897Z" fill="#677A90"/>
</svg>
