<svg width="25" height="24" viewBox="0 0 25 24" fill="none" xmlns="http://www.w3.org/2000/svg">
<path d="M14.8125 5.4407C15.1817 5.4407 15.5215 5.512 15.832 5.65466C16.7536 6.11852 17.2977 7.0001 17.3046 7.98314V14.7546C17.1318 15.8311 15.8996 15.5384 15.8698 14.7546V8.36074C15.76 7.99612 15.0559 8.1473 15.0391 8.36074V23.0364C14.8601 24.535 12.9236 24.0951 12.8742 23.0113V14.0246C12.7504 13.445 11.9355 13.7083 11.9177 14.0498C11.9522 17.0368 11.9428 20.0241 11.9428 23.0113C11.7497 24.5021 9.8227 24.1207 9.77798 23.0364L9.75282 8.36074C9.63996 8.00398 8.98756 8.14082 8.97244 8.36074V14.7546C8.79956 15.8311 7.56744 15.5384 7.5376 14.7546V7.98314C7.55502 7.04202 7.89994 6.0992 8.72072 5.65466C8.98924 5.512 9.31648 5.44068 9.70246 5.44068L14.8125 5.4407ZM14.7871 2.36554C14.7871 3.672 13.728 4.7311 12.4216 4.7311C11.1151 4.7311 10.056 3.672 10.056 2.36554C10.056 1.0591 11.1151 0 12.4215 0C13.728 0 14.7871 1.0591 14.7871 2.36554Z" fill="#01B0B3"/>
</svg>
