<svg width="21" height="25" viewBox="0 0 21 25" fill="none" xmlns="http://www.w3.org/2000/svg">
<g clip-path="url(#clip0_219_232)">
<path d="M13.6463 4.61538C14.9208 4.61538 15.954 3.58221 15.954 2.30769C15.954 1.03317 14.9208 0 13.6463 0C12.3717 0 11.3386 1.03317 11.3386 2.30769C11.3386 3.58221 12.3717 4.61538 13.6463 4.61538ZM6.0352 15.263L5.32366 16.9226H2.1078C1.25828 16.9226 0.569336 17.6115 0.569336 18.4611C0.569336 19.3106 1.25828 19.9995 2.1078 19.9995H5.83136C6.75684 19.9995 7.59001 19.4495 7.95203 18.601L8.37462 17.6144L7.86164 17.3115C7.02895 16.8197 6.41645 16.0918 6.0352 15.263ZM19.0309 10.7688H16.914L15.6612 8.20865C15.0602 6.98029 13.9568 6.08221 12.691 5.75962L9.27366 4.74327C7.91309 4.41635 6.49626 4.71683 5.38712 5.56731L3.47991 7.02933C2.80539 7.54615 2.67751 8.51154 3.1953 9.18606C3.71309 9.86058 4.67799 9.98702 5.35203 9.47067L7.2602 8.00865C7.62895 7.72548 8.09866 7.62404 8.47511 7.71346L9.18184 7.92356L7.38087 12.125C6.77414 13.5423 7.31789 15.2024 8.6453 15.9861L12.7309 18.3981L11.4102 22.6159C11.1564 23.4264 11.6078 24.2894 12.4184 24.5433C12.5717 24.5913 12.7265 24.6144 12.879 24.6144C13.5333 24.6144 14.14 24.1928 14.3463 23.5351L15.8674 18.6764C16.1515 17.6779 15.7285 16.6053 14.827 16.0615L11.8828 14.324L13.3881 10.5606L14.3626 12.5524C14.7472 13.338 15.5607 13.8452 16.4352 13.8452H19.0309C19.8804 13.8452 20.5693 13.1562 20.5693 12.3067C20.5693 11.4572 19.8804 10.7688 19.0309 10.7688Z" fill="#01B0B3"/>
</g>
<defs>
<clipPath id="clip0_219_232">
<rect width="20" height="24.6154" fill="white" transform="translate(0.569336)"/>
</clipPath>
</defs>
</svg>
