<svg width="160" height="160" viewBox="0 0 175 174" fill="none" xmlns="http://www.w3.org/2000/svg">
<g filter="url(#filter0_d_256_215)">
<rect x="7.5127" y="7" width="160" height="160" rx="20" fill="white"/>
</g>
<g filter="url(#filter1_d_256_215)">
<path d="M44.9137 96.0262C42.4088 100.364 43.8948 105.911 48.2327 108.416C52.5705 110.921 58.1177 109.435 60.6226 105.097L44.9137 96.0262ZM133.246 59.3575L137.877 51.5589L122.28 42.297L117.649 50.0955L133.246 59.3575ZM101.596 94.8927L93.7976 90.2617L101.596 94.8927ZM69.0277 82.1219L64.5895 90.0317L69.0277 82.1219ZM60.6226 105.097L70.2135 88.4879L54.5047 79.4169L44.9137 96.0262L60.6226 105.097ZM64.5895 90.0317L90.5196 104.581L99.3961 88.7616L73.4659 74.2121L64.5895 90.0317ZM109.395 99.5237L133.246 59.3575L117.649 50.0955L93.7976 90.2617L109.395 99.5237ZM90.5196 104.581C97.1413 108.297 105.518 106.052 109.395 99.5237L93.7976 90.2617C94.9475 88.3253 97.4321 87.6596 99.3961 88.7616L90.5196 104.581ZM70.2135 88.4879C69.0775 90.4553 66.5707 91.1434 64.5895 90.0317L73.4659 74.2121C66.7864 70.4642 58.3348 72.7841 54.5047 79.4169L70.2135 88.4879Z" fill="url(#paint0_linear_256_215)"/>
<circle cx="85.6367" cy="54.0742" r="15.1165" transform="rotate(-15 85.6367 54.0742)" fill="url(#paint1_linear_256_215)"/>
<circle cx="52.7143" cy="100.721" r="8.96864" fill="url(#paint2_linear_256_215)"/>
<path d="M135.384 35.9373C136.417 35.4355 137.621 36.1753 137.641 37.3234L137.882 51.5581L122.23 42.3281L135.384 35.9373Z" fill="url(#paint3_linear_256_215)"/>
<path d="M101.936 90.6112L96.3817 87.1212C96.1633 86.984 96.0938 86.698 96.2248 86.4759L104.286 72.8112C104.552 72.3611 105.243 72.6051 105.168 73.122L102.661 90.2767C102.611 90.6173 102.227 90.7943 101.936 90.6112Z" fill="url(#paint4_linear_256_215)"/>
<path d="M70.3643 88.0505L68.3788 91.6062C68.2511 91.835 68.3321 92.1239 68.5601 92.253L81.4394 99.5413C81.9226 99.8148 82.4035 99.1809 82.01 98.7893L71.1162 87.9451C70.8926 87.7225 70.5182 87.7749 70.3643 88.0505Z" fill="url(#paint5_linear_256_215)"/>
</g>
<path d="M70.826 133.778H64.4906V135.397C66.0625 135.389 67.44 135.353 68.6229 135.29C68.7957 135.28 68.9684 135.268 69.1407 135.256C70.787 135.136 72.2903 136.302 72.4456 137.946C71.08 138.152 69.6867 138.287 68.2656 138.35C66.8445 138.406 64.9669 138.438 62.6328 138.446H60.6798V130.896H67.039V129.371H62.1922C61.3569 129.371 60.6798 128.694 60.6798 127.859C60.6798 127.024 61.3569 126.346 62.1922 126.346H70.826V133.778ZM63.6808 139.827C65.7591 139.827 67.4677 141.512 67.4677 143.59H79.1621C79.1621 145.274 77.7972 146.639 76.1135 146.639H68.104C65.6611 146.639 63.6808 144.659 63.6808 142.216V139.827ZM71.7787 131.551C71.7787 130.676 72.4878 129.967 73.3625 129.967H74.8511V128.776C74.8511 126.671 76.5573 124.965 78.6619 124.965V137.398C78.6619 139.502 76.9558 141.209 74.8511 141.209V133.134H73.3625C72.4878 133.134 71.7787 132.425 71.7787 131.551Z" fill="url(#paint6_linear_256_215)"/>
<path d="M84.1637 144.853C83.743 144.853 83.3539 144.749 82.9967 144.543C82.6474 144.337 82.3695 144.059 82.1631 143.709C81.9567 143.352 81.8535 142.963 81.8535 142.542C81.8535 142.129 81.9567 141.748 82.1631 141.399C82.3695 141.05 82.6474 140.772 82.9967 140.565C83.3539 140.359 83.743 140.256 84.1637 140.256C84.5607 140.256 84.9338 140.359 85.2832 140.565C85.6404 140.772 85.9262 141.05 86.1406 141.399C86.3629 141.748 86.474 142.129 86.474 142.542C86.474 142.963 86.3668 143.352 86.1525 143.709C85.9381 144.059 85.6523 144.337 85.2951 144.543C84.9378 144.749 84.5607 144.853 84.1637 144.853ZM84.1637 136.112C83.743 136.112 83.3539 136.008 82.9967 135.802C82.6474 135.596 82.3695 135.318 82.1631 134.968C81.9567 134.611 81.8535 134.222 81.8535 133.801C81.8535 133.389 81.9567 133.007 82.1631 132.658C82.3695 132.309 82.6474 132.031 82.9967 131.825C83.3539 131.618 83.743 131.515 84.1637 131.515C84.5607 131.515 84.9338 131.618 85.2832 131.825C85.6404 132.031 85.9262 132.309 86.1406 132.658C86.3629 133.007 86.474 133.389 86.474 133.801C86.474 134.222 86.3668 134.611 86.1525 134.968C85.9381 135.318 85.6523 135.596 85.2951 135.802C84.9378 136.008 84.5607 136.112 84.1637 136.112Z" fill="url(#paint7_linear_256_215)"/>
<path d="M109.101 127.347V138.422C109.101 139.708 108.791 140.831 108.172 141.792C107.56 142.753 106.695 143.495 105.576 144.019C104.456 144.543 103.162 144.805 101.693 144.805C100.225 144.805 98.9305 144.543 97.8111 144.019C96.6996 143.495 95.8382 142.753 95.2269 141.792C94.6156 140.831 94.31 139.708 94.31 138.422V127.347C96.8092 127.347 98.8353 129.373 98.8353 131.872V138.017C98.8353 138.565 98.9583 139.057 99.2044 139.494C99.4505 139.922 99.788 140.26 100.217 140.506C100.653 140.752 101.146 140.875 101.693 140.875C102.249 140.875 102.745 140.756 103.182 140.518C103.619 140.272 103.96 139.93 104.206 139.494C104.452 139.057 104.575 138.565 104.575 138.017V131.872C104.575 129.373 106.601 127.347 109.101 127.347Z" fill="url(#paint8_linear_256_215)"/>
<path d="M122.281 132.682C121.401 132.682 120.744 131.874 120.057 131.324C119.668 131.007 119.1 130.848 118.354 130.848C117.607 130.848 117.048 130.979 116.674 131.241C116.309 131.495 116.127 131.844 116.127 132.289C116.127 132.71 116.321 133.051 116.71 133.313C117.099 133.567 117.699 133.778 118.508 133.944L119.937 134.278C121.756 134.667 123.101 135.302 123.975 136.183C124.856 137.056 125.304 138.168 125.32 139.518C125.312 140.637 125.03 141.594 124.475 142.388C123.919 143.173 123.121 143.773 122.081 144.186C121.041 144.599 119.795 144.805 118.342 144.805C116.039 144.797 114.237 144.281 112.935 143.257C111.633 142.225 110.974 140.677 110.958 138.612H113.229C114.382 138.612 115.221 139.706 116.115 140.434C116.639 140.855 117.357 141.066 118.27 141.066C119.032 141.066 119.62 140.927 120.033 140.649C120.454 140.363 120.668 139.986 120.676 139.518C120.668 139.097 120.461 138.755 120.057 138.493C119.66 138.223 118.985 137.985 118.032 137.779L116.293 137.398C113.03 136.683 111.403 135.072 111.411 132.563C111.403 131.491 111.693 130.542 112.28 129.717C112.868 128.891 113.685 128.252 114.733 127.799C115.781 127.339 116.976 127.109 118.318 127.109C119.675 127.109 120.862 127.339 121.879 127.799C122.903 128.26 123.689 128.911 124.237 129.752C124.792 130.594 125.074 131.57 125.082 132.682H122.281Z" fill="url(#paint9_linear_256_215)"/>
<defs>
<filter id="filter0_d_256_215" x="0.512695" y="0" width="174" height="174" filterUnits="userSpaceOnUse" color-interpolation-filters="sRGB">
<feFlood flood-opacity="0" result="BackgroundImageFix"/>
<feColorMatrix in="SourceAlpha" type="matrix" values="0 0 0 0 0 0 0 0 0 0 0 0 0 0 0 0 0 0 127 0" result="hardAlpha"/>
<feOffset/>
<feGaussianBlur stdDeviation="3.5"/>
<feComposite in2="hardAlpha" operator="out"/>
<feColorMatrix type="matrix" values="0 0 0 0 0.545098 0 0 0 0 0.584314 0 0 0 0 0.631373 0 0 0 0.25 0"/>
<feBlend mode="normal" in2="BackgroundImageFix" result="effect1_dropShadow_256_215"/>
<feBlend mode="normal" in="SourceGraphic" in2="effect1_dropShadow_256_215" result="shape"/>
</filter>
<filter id="filter1_d_256_215" x="36.6073" y="35.7776" width="108.365" height="88.0906" filterUnits="userSpaceOnUse" color-interpolation-filters="sRGB">
<feFlood flood-opacity="0" result="BackgroundImageFix"/>
<feColorMatrix in="SourceAlpha" type="matrix" values="0 0 0 0 0 0 0 0 0 0 0 0 0 0 0 0 0 0 127 0" result="hardAlpha"/>
<feOffset dy="7.08949"/>
<feGaussianBlur stdDeviation="3.54474"/>
<feComposite in2="hardAlpha" operator="out"/>
<feColorMatrix type="matrix" values="0 0 0 0 0 0 0 0 0 0.858333 0 0 0 0 0.497833 0 0 0 0.2 0"/>
<feBlend mode="normal" in2="BackgroundImageFix" result="effect1_dropShadow_256_215"/>
<feBlend mode="normal" in="SourceGraphic" in2="effect1_dropShadow_256_215" result="shape"/>
</filter>
<linearGradient id="paint0_linear_256_215" x1="85.8129" y1="65.3466" x2="78.5209" y2="99.4064" gradientUnits="userSpaceOnUse">
<stop stop-color="#00DB7F"/>
<stop offset="1" stop-color="#01ADB9"/>
</linearGradient>
<linearGradient id="paint1_linear_256_215" x1="85.6367" y1="38.9577" x2="85.6367" y2="69.1907" gradientUnits="userSpaceOnUse">
<stop stop-color="#00DB7F"/>
<stop offset="1" stop-color="#01ADB9"/>
</linearGradient>
<linearGradient id="paint2_linear_256_215" x1="52.7143" y1="91.752" x2="52.7143" y2="109.689" gradientUnits="userSpaceOnUse">
<stop stop-color="#01D982"/>
<stop offset="1" stop-color="#D9D9D9" stop-opacity="0"/>
<stop offset="1" stop-color="#01ADB9"/>
</linearGradient>
<linearGradient id="paint3_linear_256_215" x1="137.594" y1="34.8603" x2="130.752" y2="46.604" gradientUnits="userSpaceOnUse">
<stop stop-color="#D9D9D9"/>
<stop offset="1" stop-color="#01DB80"/>
</linearGradient>
<linearGradient id="paint4_linear_256_215" x1="104.006" y1="80.8612" x2="96.7788" y2="86.9338" gradientUnits="userSpaceOnUse">
<stop stop-color="#00D28A"/>
<stop offset="1" stop-color="#0F979E"/>
</linearGradient>
<linearGradient id="paint5_linear_256_215" x1="77.6364" y1="96.3921" x2="68.7827" y2="91.7017" gradientUnits="userSpaceOnUse">
<stop stop-color="#01AEB8"/>
<stop offset="1" stop-color="#0F979E"/>
</linearGradient>
<linearGradient id="paint6_linear_256_215" x1="93" y1="124.965" x2="93" y2="146.639" gradientUnits="userSpaceOnUse">
<stop stop-color="#00D785"/>
<stop offset="1" stop-color="#01AEB7"/>
</linearGradient>
<linearGradient id="paint7_linear_256_215" x1="93" y1="124.965" x2="93" y2="146.639" gradientUnits="userSpaceOnUse">
<stop stop-color="#00D785"/>
<stop offset="1" stop-color="#01AEB7"/>
</linearGradient>
<linearGradient id="paint8_linear_256_215" x1="93" y1="124.965" x2="93" y2="146.639" gradientUnits="userSpaceOnUse">
<stop stop-color="#00D785"/>
<stop offset="1" stop-color="#01AEB7"/>
</linearGradient>
<linearGradient id="paint9_linear_256_215" x1="93" y1="124.965" x2="93" y2="146.639" gradientUnits="userSpaceOnUse">
<stop stop-color="#00D785"/>
<stop offset="1" stop-color="#01AEB7"/>
</linearGradient>
</defs>
</svg>
