<svg width="32" height="32" viewBox="0 0 32 32" fill="none" xmlns="http://www.w3.org/2000/svg">
<path d="M22.1925 12.1412C22.1925 10.4615 21.5253 8.85058 20.3376 7.66285C19.1498 6.47512 17.5389 5.80786 15.8592 5.80786C14.1795 5.80786 12.5686 6.47512 11.3809 7.66285C10.1931 8.85058 9.52588 10.4615 9.52588 12.1412C9.52588 12.4771 9.65933 12.7993 9.89688 13.0369C10.1344 13.2744 10.4566 13.4079 10.7925 13.4079C11.1285 13.4079 11.4507 13.2744 11.6882 13.0369C11.9258 12.7993 12.0592 12.4771 12.0592 12.1412C12.0592 11.3896 12.2821 10.6549 12.6996 10.03C13.1172 9.40512 13.7107 8.91807 14.405 8.63045C15.0994 8.34284 15.8634 8.26759 16.6006 8.41421C17.3377 8.56083 18.0148 8.92275 18.5462 9.45419C19.0777 9.98563 19.4396 10.6627 19.5862 11.3999C19.7328 12.137 19.6576 12.901 19.37 13.5954C19.0823 14.2898 18.5953 14.8832 17.9704 15.3008C17.3455 15.7183 16.6108 15.9412 15.8592 15.9412C15.5233 15.9412 15.2011 16.0746 14.9635 16.3122C14.726 16.5497 14.5925 16.8719 14.5925 17.2079V19.7412C14.5925 20.0771 14.726 20.3993 14.9635 20.6369C15.2011 20.8744 15.5233 21.0079 15.8592 21.0079C16.1952 21.0079 16.5173 20.8744 16.7549 20.6369C16.9924 20.3993 17.1259 20.0771 17.1259 19.7412V18.3479C18.5564 18.0559 19.8421 17.2786 20.7654 16.1475C21.6887 15.0165 22.1928 13.6012 22.1925 12.1412Z" fill="#677A91"/>
<path d="M15.8594 26.0746C16.559 26.0746 17.1261 25.5075 17.1261 24.8079C17.1261 24.1084 16.559 23.5413 15.8594 23.5413C15.1599 23.5413 14.5928 24.1084 14.5928 24.8079C14.5928 25.5075 15.1599 26.0746 15.8594 26.0746Z" fill="#677A91"/>
</svg>
