<svg width="31" height="23" viewBox="0 0 31 23" fill="none" xmlns="http://www.w3.org/2000/svg">
<rect x="1.41992" y="1.70361" width="28" height="20" rx="4.30622" fill="url(#paint0_linear_22_744)" stroke="url(#paint1_linear_22_744)" stroke-width="2"/>
<path d="M9.96389 9.68371C9.96389 10.2678 9.47815 10.7589 8.85712 10.7589C8.23608 10.7589 7.75035 10.2678 7.75035 9.68371C7.75035 9.09958 8.23608 8.6085 8.85712 8.6085C9.47815 8.6085 9.96389 9.09958 9.96389 9.68371Z" stroke="white" stroke-width="1.06124"/>
<mask id="path-3-inside-1_22_744" fill="white">
<path fill-rule="evenodd" clip-rule="evenodd" d="M6.36498 12.7401C5.16011 13.7808 6.39807 15.3276 7.99018 15.3276H9.72401C11.3161 15.3276 12.5541 13.7808 11.3492 12.7401C10.674 12.1569 9.80515 11.806 8.85709 11.806C7.90903 11.806 7.04014 12.1569 6.36498 12.7401Z"/>
</mask>
<path d="M6.36498 12.7401L7.05868 13.5432L6.36498 12.7401ZM7.99018 16.3889H9.72401V14.2664H7.99018V16.3889ZM8.85709 12.8673C9.53709 12.8673 10.1628 13.1176 10.6555 13.5432L12.0429 11.9369C11.1853 11.1962 10.0732 10.7448 8.85709 10.7448V12.8673ZM7.05868 13.5432C7.55142 13.1176 8.17709 12.8673 8.85709 12.8673V10.7448C7.64097 10.7448 6.52885 11.1962 5.67128 11.9369L7.05868 13.5432ZM9.72401 16.3889C10.8405 16.3889 11.8865 15.8535 12.4579 15.0283C12.7508 14.6054 12.9412 14.0683 12.8837 13.4801C12.8248 12.8786 12.5187 12.3479 12.0429 11.9369L10.6555 13.5432C10.7226 13.6012 10.7508 13.6436 10.7616 13.663C10.7671 13.6731 10.7694 13.6794 10.7702 13.6821C10.771 13.6848 10.7712 13.6861 10.7713 13.6867C10.7713 13.6868 10.7724 13.6955 10.7663 13.7161C10.7599 13.738 10.745 13.7737 10.713 13.8199C10.5687 14.0284 10.1997 14.2664 9.72401 14.2664V16.3889ZM7.99018 14.2664C7.51452 14.2664 7.14552 14.0284 7.00117 13.8199C6.96916 13.7737 6.95432 13.738 6.94787 13.7161C6.94179 13.6955 6.94292 13.6868 6.94293 13.6867C6.94299 13.6861 6.94315 13.6848 6.94399 13.6821C6.94483 13.6794 6.94707 13.6731 6.95261 13.663C6.96337 13.6436 6.99157 13.6012 7.05868 13.5432L5.67128 11.9369C5.19553 12.3479 4.88935 12.8786 4.83052 13.4801C4.77299 14.0683 4.96335 14.6054 5.25625 15.0283C5.82769 15.8535 6.87373 16.3889 7.99018 16.3889V14.2664Z" fill="white" mask="url(#path-3-inside-1_22_744)"/>
<rect x="14.3145" y="8.07788" width="11.4617" height="1.17294" rx="0.586472" fill="url(#paint2_linear_22_744)"/>
<rect x="14.3145" y="11.0303" width="11.4617" height="1.17294" rx="0.586472" fill="url(#paint3_linear_22_744)"/>
<rect x="14.3145" y="13.9828" width="11.4617" height="1.17294" rx="0.586472" fill="url(#paint4_linear_22_744)"/>
<defs>
<linearGradient id="paint0_linear_22_744" x1="15.4199" y1="0.703613" x2="15.4199" y2="22.7036" gradientUnits="userSpaceOnUse">
<stop stop-color="#438FF5"/>
<stop offset="1" stop-color="#2756DA"/>
</linearGradient>
<linearGradient id="paint1_linear_22_744" x1="15.4199" y1="0.703613" x2="15.4199" y2="22.7036" gradientUnits="userSpaceOnUse">
<stop stop-color="#2B67C6"/>
<stop offset="1" stop-color="#589AF1"/>
</linearGradient>
<linearGradient id="paint2_linear_22_744" x1="14.3145" y1="8.07788" x2="25.7761" y2="8.07788" gradientUnits="userSpaceOnUse">
<stop stop-color="#75C4FF"/>
<stop offset="1" stop-color="#5396FF"/>
</linearGradient>
<linearGradient id="paint3_linear_22_744" x1="14.3145" y1="11.0303" x2="25.7761" y2="11.0303" gradientUnits="userSpaceOnUse">
<stop stop-color="#75C4FF"/>
<stop offset="1" stop-color="#5396FF"/>
</linearGradient>
<linearGradient id="paint4_linear_22_744" x1="14.3145" y1="13.9828" x2="25.7761" y2="13.9828" gradientUnits="userSpaceOnUse">
<stop stop-color="#75C4FF"/>
<stop offset="1" stop-color="#5396FF"/>
</linearGradient>
</defs>
</svg>
