<svg width="16" height="17" viewBox="0 0 16 17" fill="none" xmlns="http://www.w3.org/2000/svg">
<path d="M9.19995 6.96626H12.8V6.49746C12.8 6.38654 12.7847 6.27615 12.7544 6.16946L12.7536 6.16626C12.6974 5.97096 12.5925 5.79314 12.4488 5.64946L9.31675 2.51746C9.09179 2.29265 8.78679 2.16633 8.46875 2.16626H4.79995C4.3756 2.16626 3.96864 2.33483 3.66858 2.63489C3.36852 2.93495 3.19995 3.34191 3.19995 3.76626V13.3663C3.19995 13.7906 3.36852 14.1976 3.66858 14.4976C3.96864 14.7977 4.3756 14.9663 4.79995 14.9663H6.57675L6.56635 14.9455C6.44176 14.7055 6.38505 14.4361 6.40235 14.1663H4.79995C4.58778 14.1663 4.38429 14.082 4.23427 13.9319C4.08424 13.7819 3.99995 13.5784 3.99995 13.3663V3.76626C3.99995 3.55409 4.08424 3.3506 4.23427 3.20057C4.38429 3.05055 4.58778 2.96626 4.79995 2.96626H7.99995V5.76626C7.99995 6.08452 8.12638 6.38974 8.35142 6.61479C8.57647 6.83983 8.88169 6.96626 9.19995 6.96626ZM9.19995 6.16626C9.09386 6.16626 8.99212 6.12412 8.91711 6.0491C8.84209 5.97409 8.79995 5.87235 8.79995 5.76626V3.13186L11.8344 6.16626H9.19995ZM11.848 8.20466C11.9865 8.064 12.1515 7.95216 12.3335 7.87558C12.5155 7.79901 12.7108 7.75921 12.9082 7.75848C13.1057 7.75775 13.3013 7.79611 13.4838 7.87135C13.6664 7.94658 13.8322 8.0572 13.9718 8.19684C14.1114 8.33647 14.2219 8.50235 14.2971 8.68491C14.3722 8.86748 14.4105 9.06311 14.4097 9.26054C14.4089 9.45798 14.3691 9.6533 14.2924 9.83524C14.2158 10.0172 14.1039 10.1822 13.9632 10.3207L10.0992 14.1839C9.87406 14.4091 9.59201 14.5689 9.28315 14.6463L8.08475 14.9455C7.96559 14.9752 7.84077 14.9735 7.72243 14.9407C7.60408 14.9079 7.49623 14.8451 7.40935 14.7583C7.32248 14.6715 7.25953 14.5637 7.22662 14.4454C7.19371 14.3271 7.19197 14.2022 7.22155 14.0831L7.52155 12.8847C7.59828 12.5755 7.7582 12.2933 7.98395 12.0687L11.848 8.20466Z" fill="#677A90"/>
</svg>
