<svg width="17" height="17" viewBox="0 0 17 17" fill="none" xmlns="http://www.w3.org/2000/svg">
<g clip-path="url(#clip0_1375_3163)">
<path fill-rule="evenodd" clip-rule="evenodd" d="M8.49996 0.849472C4.44996 0.849472 1.16663 4.13281 1.16663 8.18281C1.16663 12.2328 4.44996 15.5161 8.49996 15.5161C12.55 15.5161 15.8333 12.2328 15.8333 8.18281C15.8333 4.13281 12.55 0.849472 8.49996 0.849472ZM9.16663 4.84947C9.16663 4.67266 9.09639 4.50309 8.97136 4.37807C8.84634 4.25304 8.67677 4.18281 8.49996 4.18281C8.32315 4.18281 8.15358 4.25304 8.02855 4.37807C7.90353 4.50309 7.83329 4.67266 7.83329 4.84947V8.84947C7.83329 9.02628 7.90353 9.19585 8.02855 9.32088C8.15358 9.4459 8.32315 9.51614 8.49996 9.51614C8.67677 9.51614 8.84634 9.4459 8.97136 9.32088C9.09639 9.19585 9.16663 9.02628 9.16663 8.84947V4.84947ZM9.16663 11.1828C9.16663 11.006 9.09639 10.8364 8.97136 10.7114C8.84634 10.5864 8.67677 10.5161 8.49996 10.5161C8.32315 10.5161 8.15358 10.5864 8.02855 10.7114C7.90353 10.8364 7.83329 11.006 7.83329 11.1828V11.5161C7.83329 11.6929 7.90353 11.8625 8.02855 11.9875C8.15358 12.1126 8.32315 12.1828 8.49996 12.1828C8.67677 12.1828 8.84634 12.1126 8.97136 11.9875C9.09639 11.8625 9.16663 11.6929 9.16663 11.5161V11.1828Z" fill="#FF8080"/>
</g>
<defs>
<clipPath id="clip0_1375_3163">
<rect width="16" height="16" fill="white" transform="translate(0.5 0.1828)"/>
</clipPath>
</defs>
</svg>
