<svg width="39" height="27" viewBox="0 0 39 27" fill="none" xmlns="http://www.w3.org/2000/svg">
<g filter="url(#filter0_d_22_736)">
<path fill-rule="evenodd" clip-rule="evenodd" d="M19.7441 5.62057C22.6584 3.81372 29.2414 3.34059 34.7441 14.0104C33.8711 16.9288 29.2745 22.6515 19.7449 22.6165C10.2143 22.6521 5.61726 16.929 4.74414 14.0104C10.2468 3.34061 16.8299 3.81373 19.7441 5.62057Z" fill="url(#paint0_linear_22_736)"/>
<path d="M34.7441 14.0104L35.7022 14.297L35.8178 13.9105L35.6329 13.552L34.7441 14.0104ZM19.7441 5.62057L19.2172 6.47047L19.7441 6.79717L20.2711 6.47046L19.7441 5.62057ZM19.7449 22.6165L19.7486 21.6165L19.7412 21.6165L19.7449 22.6165ZM4.74414 14.0104L3.85537 13.552L3.67048 13.9105L3.78609 14.297L4.74414 14.0104ZM35.6329 13.552C32.8085 8.07548 29.6245 5.30075 26.6178 4.1979C23.6092 3.09435 20.915 3.71801 19.2172 4.77067L20.2711 6.47046C21.4875 5.71628 23.5419 5.19995 25.9291 6.07557C28.3182 6.9519 31.1771 9.27549 33.8554 14.4687L35.6329 13.552ZM19.7413 23.6165C29.7026 23.653 34.6988 17.651 35.7022 14.297L33.7861 13.7238C33.0433 16.2067 28.8464 21.6499 19.7486 21.6165L19.7413 23.6165ZM19.7412 21.6165C10.6424 21.6505 6.44501 16.2068 5.70219 13.7238L3.78609 14.297C4.78952 17.6511 9.78621 23.6537 19.7486 23.6165L19.7412 21.6165ZM5.63291 14.4687C8.3112 9.2755 11.1701 6.95191 13.5592 6.07558C15.9464 5.19996 18.0008 5.71628 19.2172 6.47047L20.2711 4.77066C18.5733 3.71801 15.879 3.09436 12.8704 4.19791C9.86378 5.30076 6.67977 8.07549 3.85537 13.552L5.63291 14.4687Z" fill="url(#paint1_linear_22_736)"/>
</g>
<g filter="url(#filter1_di_22_736)">
<path fill-rule="evenodd" clip-rule="evenodd" d="M19.7441 11.9257C22.6214 11.2994 28.6129 10.9562 31.791 14.2103C29.4289 15.5207 23.7928 17.9904 19.7442 17.6405C15.6955 17.9905 10.0594 15.5207 7.69727 14.2103C10.8753 10.9562 16.8669 11.2994 19.7441 11.9257Z" fill="url(#paint2_linear_22_736)"/>
<path d="M31.791 14.2103L31.9762 14.5442L32.4137 14.3015L32.0642 13.9436L31.791 14.2103ZM19.7441 11.9257L19.6629 12.2988L19.7441 12.3165L19.8253 12.2988L19.7441 11.9257ZM19.7442 17.6405L19.777 17.2601L19.7442 17.2572L19.7113 17.2601L19.7442 17.6405ZM7.69727 14.2103L7.42412 13.9436L7.07456 14.3015L7.51206 14.5442L7.69727 14.2103ZM32.0642 13.9436C30.3874 12.2266 27.9932 11.4805 25.6956 11.2333C23.3929 10.9854 21.1339 11.2325 19.6629 11.5527L19.8253 12.2988C21.2316 11.9927 23.407 11.755 25.6139 11.9925C27.826 12.2305 30.0166 12.9399 31.5179 14.4771L32.0642 13.9436ZM19.7113 18.0208C21.8137 18.2026 24.2942 17.6531 26.5209 16.9102C28.7553 16.1647 30.7763 15.2098 31.9762 14.5442L31.6058 13.8765C30.4436 14.5212 28.4655 15.4564 26.2792 16.1859C24.0851 16.9179 21.7232 17.4283 19.777 17.2601L19.7113 18.0208ZM19.7113 17.2601C17.7651 17.4283 15.4032 16.9179 13.2091 16.1859C11.0228 15.4564 9.04472 14.5212 7.88248 13.8765L7.51206 14.5442C8.71196 15.2098 10.733 16.1647 12.9674 16.9102C15.1941 17.6531 17.6746 18.2026 19.777 18.0208L19.7113 17.2601ZM7.97041 14.4771C9.47168 12.9399 11.6623 12.2305 13.8744 11.9925C16.0812 11.755 18.2567 11.9927 19.6629 12.2988L19.8253 11.5527C18.3544 11.2325 16.0954 10.9854 13.7927 11.2333C11.4951 11.4805 9.10092 12.2266 7.42412 13.9436L7.97041 14.4771Z" fill="url(#paint3_linear_22_736)"/>
</g>
<defs>
<filter id="filter0_d_22_736" x="0.616143" y="0.562188" width="38.256" height="26.1089" filterUnits="userSpaceOnUse" color-interpolation-filters="sRGB">
<feFlood flood-opacity="0" result="BackgroundImageFix"/>
<feColorMatrix in="SourceAlpha" type="matrix" values="0 0 0 0 0 0 0 0 0 0 0 0 0 0 0 0 0 0 127 0" result="hardAlpha"/>
<feOffset/>
<feGaussianBlur stdDeviation="1.52719"/>
<feComposite in2="hardAlpha" operator="out"/>
<feColorMatrix type="matrix" values="0 0 0 0 0 0 0 0 0 0 0 0 0 0 0 0 0 0 0.25 0"/>
<feBlend mode="normal" in2="BackgroundImageFix" result="effect1_dropShadow_22_736"/>
<feBlend mode="normal" in="SourceGraphic" in2="effect1_dropShadow_22_736" result="shape"/>
</filter>
<filter id="filter1_di_22_736" x="4.0202" y="8.07781" width="31.4479" height="16.0868" filterUnits="userSpaceOnUse" color-interpolation-filters="sRGB">
<feFlood flood-opacity="0" result="BackgroundImageFix"/>
<feColorMatrix in="SourceAlpha" type="matrix" values="0 0 0 0 0 0 0 0 0 0 0 0 0 0 0 0 0 0 127 0" result="hardAlpha"/>
<feOffset dy="3.05439"/>
<feGaussianBlur stdDeviation="1.52719"/>
<feComposite in2="hardAlpha" operator="out"/>
<feColorMatrix type="matrix" values="0 0 0 0 0 0 0 0 0 0 0 0 0 0 0 0 0 0 0.25 0"/>
<feBlend mode="normal" in2="BackgroundImageFix" result="effect1_dropShadow_22_736"/>
<feBlend mode="normal" in="SourceGraphic" in2="effect1_dropShadow_22_736" result="shape"/>
<feColorMatrix in="SourceAlpha" type="matrix" values="0 0 0 0 0 0 0 0 0 0 0 0 0 0 0 0 0 0 127 0" result="hardAlpha"/>
<feOffset dy="-3.05439"/>
<feGaussianBlur stdDeviation="1.52719"/>
<feComposite in2="hardAlpha" operator="arithmetic" k2="-1" k3="1"/>
<feColorMatrix type="matrix" values="0 0 0 0 0 0 0 0 0 0 0 0 0 0 0 0 0 0 0.25 0"/>
<feBlend mode="normal" in2="shape" result="effect2_innerShadow_22_736"/>
</filter>
<linearGradient id="paint0_linear_22_736" x1="19.7441" y1="4.6167" x2="19.7441" y2="22.6167" gradientUnits="userSpaceOnUse">
<stop stop-color="#ED4C5C"/>
<stop offset="1" stop-color="#B84444"/>
</linearGradient>
<linearGradient id="paint1_linear_22_736" x1="19.7441" y1="4.6167" x2="19.7441" y2="22.6167" gradientUnits="userSpaceOnUse">
<stop stop-color="#FF8585"/>
<stop offset="1" stop-color="#FF6A6A"/>
</linearGradient>
<linearGradient id="paint2_linear_22_736" x1="19.7441" y1="17.6741" x2="19.7441" y2="10.7176" gradientUnits="userSpaceOnUse">
<stop stop-color="#FF9C9C"/>
<stop offset="1" stop-color="#FFC1C1"/>
</linearGradient>
<linearGradient id="paint3_linear_22_736" x1="19.7441" y1="17.6741" x2="19.7441" y2="10.7176" gradientUnits="userSpaceOnUse">
<stop stop-color="#E64B59"/>
<stop offset="1" stop-color="white"/>
</linearGradient>
</defs>
</svg>
