<svg width="220" height="148" viewBox="0 0 220 148" fill="none" xmlns="http://www.w3.org/2000/svg">
<rect x="3.25329" y="26.5585" width="185.995" height="27.743" rx="3.25329" fill="#24CD88" stroke="url(#paint0_linear_510_8576)" stroke-width="6.50659"/>
<mask id="path-2-inside-1_510_8576" fill="white">
<path fill-rule="evenodd" clip-rule="evenodd" d="M119.612 10.4924C116.931 10.4924 114.477 11.4646 112.584 13.0756V12.9109C112.584 6.2777 107.207 0.900391 100.573 0.900391C94.0075 0.900391 88.6722 6.16887 88.5644 12.709C86.6042 11.3136 84.2065 10.4929 81.6171 10.4929C74.9938 10.4929 69.6245 15.8622 69.6245 22.4855V50.9078H51.9922V88.4223C51.9922 90.7675 52.6984 92.9478 53.9098 94.762C54.0952 95.1755 54.3043 95.5856 54.5381 95.991L65.7049 115.356C68.5629 120.312 72.9141 124.099 78.0048 126.279V140.703C78.0048 144.296 80.9179 147.209 84.5114 147.209H124.329C127.922 147.209 130.835 144.296 130.835 140.703V123.078C135.267 119.711 138.621 114.928 140.18 109.274L144.682 92.95C144.962 91.9331 145.115 90.9176 145.15 89.9186H145.798V39.531H145.794V28.2353C145.794 22.8906 141.461 18.5578 136.117 18.5578C133.989 18.5578 132.022 19.2443 130.425 20.4079C129.95 14.8529 125.29 10.4924 119.612 10.4924Z"/>
</mask>
<path fill-rule="evenodd" clip-rule="evenodd" d="M119.612 10.4924C116.931 10.4924 114.477 11.4646 112.584 13.0756V12.9109C112.584 6.2777 107.207 0.900391 100.573 0.900391C94.0075 0.900391 88.6722 6.16887 88.5644 12.709C86.6042 11.3136 84.2065 10.4929 81.6171 10.4929C74.9938 10.4929 69.6245 15.8622 69.6245 22.4855V50.9078H51.9922V88.4223C51.9922 90.7675 52.6984 92.9478 53.9098 94.762C54.0952 95.1755 54.3043 95.5856 54.5381 95.991L65.7049 115.356C68.5629 120.312 72.9141 124.099 78.0048 126.279V140.703C78.0048 144.296 80.9179 147.209 84.5114 147.209H124.329C127.922 147.209 130.835 144.296 130.835 140.703V123.078C135.267 119.711 138.621 114.928 140.18 109.274L144.682 92.95C144.962 91.9331 145.115 90.9176 145.15 89.9186H145.798V39.531H145.794V28.2353C145.794 22.8906 141.461 18.5578 136.117 18.5578C133.989 18.5578 132.022 19.2443 130.425 20.4079C129.95 14.8529 125.29 10.4924 119.612 10.4924Z" fill="white"/>
<path d="M112.584 13.0756H106.077V27.1544L116.8 18.0313L112.584 13.0756ZM88.5644 12.709L84.7909 18.0096L94.8662 25.182L95.0701 12.8162L88.5644 12.709ZM69.6245 50.9078V57.4144H76.1311V50.9078H69.6245ZM51.9922 50.9078V44.4012H45.4856V50.9078H51.9922ZM53.9098 94.762L59.8473 92.1007L59.6241 91.6027L59.321 91.1488L53.9098 94.762ZM54.5381 95.991L48.9015 99.2413L48.9015 99.2413L54.5381 95.991ZM65.7049 115.356L71.3415 112.106L65.7049 115.356ZM78.0048 126.279H84.5114V121.988L80.5671 120.299L78.0048 126.279ZM130.835 123.078L126.899 117.897L124.329 119.85V123.078H130.835ZM140.18 109.274L146.452 111.004L140.18 109.274ZM144.682 92.95L138.41 91.2202L138.41 91.2202L144.682 92.95ZM145.15 89.9186V83.412H138.869L138.647 89.6893L145.15 89.9186ZM145.798 89.9186V96.4252H152.304V89.9186H145.798ZM145.798 39.531H152.304V33.0244H145.798V39.531ZM145.794 39.531H139.287V46.0376H145.794V39.531ZM130.425 20.4079L123.942 20.9621L124.925 32.4635L134.256 25.6671L130.425 20.4079ZM116.8 18.0313C117.561 17.3837 118.534 16.999 119.612 16.999V3.98581C115.329 3.98581 111.393 5.54548 108.368 8.11999L116.8 18.0313ZM106.077 12.9109V13.0756H119.09V12.9109H106.077ZM100.573 7.40698C103.613 7.40698 106.077 9.87119 106.077 12.9109H119.09C119.09 2.68421 110.8 -5.6062 100.573 -5.6062V7.40698ZM95.0701 12.8162C95.1195 9.82144 97.565 7.40698 100.573 7.40698V-5.6062C90.4499 -5.6062 82.225 2.51631 82.0587 12.6017L95.0701 12.8162ZM81.6171 16.9995C82.81 16.9995 83.8963 17.3727 84.7909 18.0096L92.3378 7.40831C89.3121 5.25437 85.6031 3.98632 81.6171 3.98632V16.9995ZM76.1311 22.4855C76.1311 19.4557 78.5873 16.9995 81.6171 16.9995V3.98632C71.4003 3.98632 63.118 12.2687 63.118 22.4855H76.1311ZM76.1311 50.9078V22.4855H63.118V50.9078H76.1311ZM51.9922 57.4144H69.6245V44.4012H51.9922V57.4144ZM58.4988 88.4223V50.9078H45.4856V88.4223H58.4988ZM59.321 91.1488C58.8016 90.3709 58.4988 89.4418 58.4988 88.4223H45.4856C45.4856 92.0931 46.5953 95.5246 48.4987 98.3752L59.321 91.1488ZM60.1747 92.7407C60.0506 92.5255 59.942 92.3119 59.8473 92.1007L47.9724 97.4233C48.2484 98.0391 48.5581 98.6457 48.9015 99.2413L60.1747 92.7407ZM71.3415 112.106L60.1747 92.7406L48.9015 99.2413L60.0683 118.606L71.3415 112.106ZM80.5671 120.299C76.7468 118.662 73.4847 115.822 71.3415 112.106L60.0683 118.606C63.6411 124.802 69.0814 129.535 75.4425 132.26L80.5671 120.299ZM84.5114 140.703V126.279H71.4982V140.703H84.5114ZM84.5114 140.703H84.5114H71.4982C71.4982 147.89 77.3244 153.716 84.5114 153.716V140.703ZM124.329 140.703H84.5114V153.716H124.329V140.703ZM124.329 140.703V153.716C131.516 153.716 137.342 147.89 137.342 140.703H124.329ZM124.329 123.078V140.703H137.342V123.078H124.329ZM133.908 107.544C132.738 111.785 130.226 115.37 126.899 117.897L134.772 128.259C140.308 124.053 144.504 118.071 146.452 111.004L133.908 107.544ZM138.41 91.2202L133.908 107.544L146.452 111.004L150.954 94.6799L138.41 91.2202ZM138.647 89.6893C138.63 90.1822 138.555 90.694 138.41 91.2202L150.954 94.6799C151.37 93.1721 151.599 91.653 151.652 90.1478L138.647 89.6893ZM145.798 83.412H145.15V96.4252H145.798V83.412ZM139.291 39.531V89.9186H152.304V39.531H139.291ZM145.794 46.0376H145.798V33.0244H145.794V46.0376ZM139.287 28.2353V39.531H152.301V28.2353H139.287ZM136.117 25.0644C137.868 25.0644 139.287 26.4841 139.287 28.2353H152.301C152.301 19.2971 145.055 12.0513 136.117 12.0513V25.0644ZM134.256 25.6671C134.778 25.2869 135.411 25.0644 136.117 25.0644V12.0513C132.567 12.0513 129.266 13.2017 126.594 15.1486L134.256 25.6671ZM119.612 16.999C121.883 16.999 123.752 18.7446 123.942 20.9621L136.908 19.8536C136.147 10.9613 128.698 3.98581 119.612 3.98581V16.999Z" fill="#24CD88" mask="url(#path-2-inside-1_510_8576)"/>
<line x1="72.8597" y1="40.4302" x2="72.8597" y2="74.6798" stroke="#24CD88" stroke-width="6.50659"/>
<line x1="91.6019" y1="16.5322" x2="91.6019" y2="50.7818" stroke="#24CD88" stroke-width="6.50659"/>
<line x1="109.273" y1="16.5322" x2="109.273" y2="50.7818" stroke="#24CD88" stroke-width="6.50659"/>
<line x1="127.393" y1="23.3052" x2="127.393" y2="50.7815" stroke="#24CD88" stroke-width="6.50659"/>
<path d="M215.101 39.2614C216.125 39.7215 216.125 41.1751 215.101 41.6353L188.236 53.7098C187.375 54.0968 186.401 53.4669 186.401 52.5229L186.401 28.3738C186.401 27.4298 187.375 26.7999 188.236 27.1869L215.101 39.2614Z" fill="#D8FFDA" stroke="url(#paint1_linear_510_8576)" stroke-width="6.50659"/>
<defs>
<linearGradient id="paint0_linear_510_8576" x1="96.2509" y1="23.3052" x2="96.2509" y2="57.5547" gradientUnits="userSpaceOnUse">
<stop stop-color="#24CD88"/>
<stop offset="1" stop-color="#00C172"/>
</linearGradient>
<linearGradient id="paint1_linear_510_8576" x1="217.742" y1="40.4483" x2="175.954" y2="40.4483" gradientUnits="userSpaceOnUse">
<stop stop-color="#21CC86"/>
<stop offset="0.0001" stop-color="#21CC86"/>
<stop offset="1" stop-color="#03C274"/>
</linearGradient>
</defs>
</svg>
