<svg width="224" height="155" viewBox="0 0 224 155" fill="none" xmlns="http://www.w3.org/2000/svg">
<g filter="url(#filter0_d_510_8655)">
<rect x="50.7912" y="17.1994" width="118.152" height="17.6236" rx="2.06664" fill="#24CD88" stroke="url(#paint0_linear_510_8655)" stroke-width="4.13327"/>
<mask id="path-2-inside-1_510_8655" fill="white">
<path fill-rule="evenodd" clip-rule="evenodd" d="M124.702 6.99357C123 6.99357 121.442 7.61073 120.239 8.63354V8.53003C120.239 4.3163 116.823 0.900391 112.609 0.900391C108.439 0.900391 105.05 4.24668 104.981 8.40081C103.736 7.51488 102.213 6.99388 100.569 6.99388C96.3611 6.99388 92.9503 10.4047 92.9503 14.6121V36.3554H82.6553V54.6409C81.9715 56.7376 82.1103 59.1292 83.3657 61.3063L90.4594 73.6079C92.2749 76.7562 95.0389 79.1614 98.2727 80.5469V142.767C98.2727 145.05 100.123 146.9 102.406 146.9H127.7C129.983 146.9 131.833 145.05 131.833 142.767V78.5133C134.648 76.3746 136.779 73.3359 137.769 69.7444L140.629 59.3745C140.807 58.7284 140.904 58.0832 140.926 57.4485H141.337V25.4401H141.336V18.2645C141.336 14.8693 138.583 12.1169 135.188 12.1169C133.836 12.1169 132.586 12.5534 131.571 13.2931C131.27 9.76397 128.31 6.99357 124.702 6.99357Z"/>
</mask>
<path fill-rule="evenodd" clip-rule="evenodd" d="M124.702 6.99357C123 6.99357 121.442 7.61073 120.239 8.63354V8.53003C120.239 4.3163 116.823 0.900391 112.609 0.900391C108.439 0.900391 105.05 4.24668 104.981 8.40081C103.736 7.51488 102.213 6.99388 100.569 6.99388C96.3611 6.99388 92.9503 10.4047 92.9503 14.6121V36.3554H82.6553V54.6409C81.9715 56.7376 82.1103 59.1292 83.3657 61.3063L90.4594 73.6079C92.2749 76.7562 95.0389 79.1614 98.2727 80.5469V142.767C98.2727 145.05 100.123 146.9 102.406 146.9H127.7C129.983 146.9 131.833 145.05 131.833 142.767V78.5133C134.648 76.3746 136.779 73.3359 137.769 69.7444L140.629 59.3745C140.807 58.7284 140.904 58.0832 140.926 57.4485H141.337V25.4401H141.336V18.2645C141.336 14.8693 138.583 12.1169 135.188 12.1169C133.836 12.1169 132.586 12.5534 131.571 13.2931C131.27 9.76397 128.31 6.99357 124.702 6.99357Z" fill="white"/>
<path d="M120.239 8.63354H116.106V17.5743L122.916 11.7822L120.239 8.63354ZM104.981 8.40081L102.584 11.7684L108.983 16.3219L109.113 8.46944L104.981 8.40081ZM92.9503 36.3554V40.4887H97.0836V36.3554H92.9503ZM82.6553 36.3554V32.2222H78.522V36.3554H82.6553ZM82.6553 54.6409L86.5849 55.9223L86.7886 55.2978V54.6409H82.6553ZM83.3657 61.3063L86.9463 59.2415L83.3657 61.3063ZM90.4594 73.6079L86.8788 75.6726H86.8788L90.4594 73.6079ZM98.2727 80.5469H102.406V77.821L99.9004 76.7476L98.2727 80.5469ZM131.833 78.5133L129.333 75.2222L127.7 76.4628V78.5133H131.833ZM137.769 69.7444L133.785 68.6455L137.769 69.7444ZM140.629 59.3745L136.645 58.2757V58.2757L140.629 59.3745ZM140.926 57.4485V53.3152H136.936L136.796 57.3031L140.926 57.4485ZM141.337 57.4485V61.5818H145.471V57.4485H141.337ZM141.337 25.4401H145.471V21.3068H141.337V25.4401ZM141.336 25.4401H137.202V29.5733H141.336V25.4401ZM131.571 13.2931L127.453 13.6447L128.077 20.9542L134.005 16.6334L131.571 13.2931ZM122.916 11.7822C123.4 11.3711 124.017 11.1268 124.702 11.1268V2.8603C121.982 2.8603 119.483 3.85041 117.561 5.48488L122.916 11.7822ZM116.106 8.53003V8.63354H124.372V8.53003H116.106ZM112.609 5.03366C114.54 5.03366 116.106 6.59904 116.106 8.53003H124.372C124.372 2.03356 119.106 -3.23288 112.609 -3.23288V5.03366ZM109.113 8.46944C109.145 6.56721 110.698 5.03366 112.609 5.03366V-3.23288C106.179 -3.23288 100.954 1.92615 100.848 8.33217L109.113 8.46944ZM100.569 11.1272C101.326 11.1272 102.016 11.3641 102.584 11.7684L107.377 5.03317C105.455 3.66564 103.1 2.86061 100.569 2.86061V11.1272ZM97.0836 14.6121C97.0836 12.6874 98.6439 11.1272 100.569 11.1272V2.86061C94.0784 2.86061 88.8171 8.12193 88.8171 14.6121H97.0836ZM97.0836 36.3554V14.6121H88.8171V36.3554H97.0836ZM82.6553 40.4887H92.9503V32.2222H82.6553V40.4887ZM86.7886 54.6409V36.3554H78.522V54.6409H86.7886ZM86.9463 59.2415C86.3075 58.1338 86.2448 56.9653 86.5849 55.9223L78.7257 53.3594C77.6983 56.51 77.913 60.1246 79.7851 63.371L86.9463 59.2415ZM94.04 71.5431L86.9463 59.2415L79.7851 63.371L86.8788 75.6726L94.04 71.5431ZM99.9004 76.7476C97.4737 75.7079 95.4014 73.904 94.04 71.5431L86.8788 75.6726C89.1483 79.6084 92.6042 82.615 96.6451 84.3462L99.9004 76.7476ZM102.406 142.767V80.5469H94.1395V142.767H102.406ZM102.406 142.767H102.406H94.1395C94.1395 147.333 97.8405 151.034 102.406 151.034V142.767ZM127.7 142.767H102.406V151.034H127.7V142.767ZM127.7 142.767V151.034C132.265 151.034 135.966 147.333 135.966 142.767H127.7ZM127.7 78.5133V142.767H135.966V78.5133H127.7ZM133.785 68.6455C133.042 71.3396 131.446 73.6167 129.333 75.2222L134.334 81.8044C137.85 79.1326 140.516 75.3322 141.754 70.8433L133.785 68.6455ZM136.645 58.2757L133.785 68.6455L141.754 70.8433L144.614 60.4734L136.645 58.2757ZM136.796 57.3031C136.785 57.6162 136.737 57.9413 136.645 58.2757L144.614 60.4734C144.878 59.5155 145.023 58.5502 145.057 57.5939L136.796 57.3031ZM141.337 53.3152H140.926V61.5818H141.337V53.3152ZM137.204 25.4401V57.4485H145.471V25.4401H137.204ZM141.336 29.5733H141.337V21.3068H141.336V29.5733ZM137.202 18.2645V25.4401H145.469V18.2645H137.202ZM135.188 16.2502C136.3 16.2502 137.202 17.152 137.202 18.2645H145.469C145.469 12.5866 140.866 7.98366 135.188 7.98366V16.2502ZM134.005 16.6334C134.337 16.3917 134.74 16.2502 135.188 16.2502V7.98366C132.932 7.98366 130.835 8.71512 129.137 9.9528L134.005 16.6334ZM124.702 11.1268C126.145 11.1268 127.332 12.2359 127.453 13.6447L135.689 12.9414C135.207 7.29206 130.474 2.8603 124.702 2.8603V11.1268Z" fill="#24CD88" mask="url(#path-2-inside-1_510_8655)"/>
<line x1="95.0061" y1="26.0112" x2="95.0061" y2="47.7681" stroke="#24CD88" stroke-width="4.13327"/>
<line x1="106.91" y1="10.8306" x2="106.91" y2="32.5874" stroke="#24CD88" stroke-width="4.13327"/>
<line x1="118.137" y1="10.8306" x2="118.137" y2="32.5874" stroke="#24CD88" stroke-width="4.13327"/>
<line x1="129.648" y1="15.1328" x2="129.648" y2="32.587" stroke="#24CD88" stroke-width="4.13327"/>
<mask id="path-8-inside-2_510_8655" fill="white">
<path fill-rule="evenodd" clip-rule="evenodd" d="M46.4534 59.7382C44.7509 59.7382 43.1925 60.3554 41.9898 61.3782V61.2747C41.9898 57.0609 38.5739 53.645 34.3602 53.645C30.1896 53.645 26.8006 56.9913 26.7316 61.1454C25.4866 60.2595 23.9639 59.7385 22.3195 59.7385C18.1121 59.7385 14.7013 63.1493 14.7013 67.3567V88.6875C13.8628 88.3 12.9289 88.0838 11.9445 88.0838H10.5791C6.94572 88.0838 4.00026 91.0292 4.00026 94.6627V108.465C4.00026 108.699 4.01245 108.93 4.03624 109.157C3.88137 110.771 4.20381 112.468 5.11667 114.051L12.2103 126.352C14.0258 129.501 16.7899 131.906 20.0237 133.291V142.767C20.0237 145.05 21.8742 146.9 24.157 146.9H49.4508C51.7336 146.9 53.5841 145.05 53.5841 142.767V131.258C56.399 129.119 58.5297 126.081 59.5202 122.489L62.3801 112.119C62.5583 111.473 62.6549 110.828 62.6773 110.193H63.0884V78.1847H63.0866V71.0091C63.0866 67.6139 60.3342 64.8616 56.939 64.8616C55.587 64.8616 54.3369 65.298 53.322 66.0377C53.0206 62.5086 50.0605 59.7382 46.4534 59.7382Z"/>
</mask>
<path fill-rule="evenodd" clip-rule="evenodd" d="M46.4534 59.7382C44.7509 59.7382 43.1925 60.3554 41.9898 61.3782V61.2747C41.9898 57.0609 38.5739 53.645 34.3602 53.645C30.1896 53.645 26.8006 56.9913 26.7316 61.1454C25.4866 60.2595 23.9639 59.7385 22.3195 59.7385C18.1121 59.7385 14.7013 63.1493 14.7013 67.3567V88.6875C13.8628 88.3 12.9289 88.0838 11.9445 88.0838H10.5791C6.94572 88.0838 4.00026 91.0292 4.00026 94.6627V108.465C4.00026 108.699 4.01245 108.93 4.03624 109.157C3.88137 110.771 4.20381 112.468 5.11667 114.051L12.2103 126.352C14.0258 129.501 16.7899 131.906 20.0237 133.291V142.767C20.0237 145.05 21.8742 146.9 24.157 146.9H49.4508C51.7336 146.9 53.5841 145.05 53.5841 142.767V131.258C56.399 129.119 58.5297 126.081 59.5202 122.489L62.3801 112.119C62.5583 111.473 62.6549 110.828 62.6773 110.193H63.0884V78.1847H63.0866V71.0091C63.0866 67.6139 60.3342 64.8616 56.939 64.8616C55.587 64.8616 54.3369 65.298 53.322 66.0377C53.0206 62.5086 50.0605 59.7382 46.4534 59.7382Z" fill="white"/>
<path d="M41.9898 61.3782H37.8565V70.319L44.6675 64.5268L41.9898 61.3782ZM26.7316 61.1454L24.3352 64.5131L30.7339 69.0665L30.8643 61.2141L26.7316 61.1454ZM14.7013 88.6875L12.9673 92.4395L18.8346 95.1511V88.6875H14.7013ZM4.03624 109.157L8.15062 109.552L8.1902 109.14L8.1471 108.728L4.03624 109.157ZM5.11667 114.051L1.53606 116.116H1.53606L5.11667 114.051ZM12.2103 126.352L15.791 124.288H15.791L12.2103 126.352ZM20.0237 133.291H24.157V130.566L21.6514 129.492L20.0237 133.291ZM53.5841 131.258L51.0836 127.967L49.4508 129.207V131.258H53.5841ZM59.5202 122.489L55.5357 121.39L59.5202 122.489ZM62.3801 112.119L58.3955 111.02V111.02L62.3801 112.119ZM62.6773 110.193V106.06H58.6869L58.5465 110.048L62.6773 110.193ZM63.0884 110.193V114.326H67.2217V110.193H63.0884ZM63.0884 78.1847H67.2217V74.0514H63.0884V78.1847ZM63.0866 78.1847H58.9533V82.318H63.0866V78.1847ZM53.322 66.0377L49.2037 66.3894L49.8278 73.6988L55.7564 69.378L53.322 66.0377ZM44.6675 64.5268C45.1509 64.1157 45.7683 63.8715 46.4534 63.8715V55.6049C43.7334 55.6049 41.2341 56.595 39.3121 58.2295L44.6675 64.5268ZM37.8565 61.2747V61.3782H46.1231V61.2747H37.8565ZM34.3602 57.7783C36.2912 57.7783 37.8565 59.3437 37.8565 61.2747H46.1231C46.1231 54.7782 40.8566 49.5117 34.3602 49.5117V57.7783ZM30.8643 61.2141C30.8959 59.3118 32.4494 57.7783 34.3602 57.7783V49.5117C27.9298 49.5117 22.7053 54.6708 22.5989 61.0768L30.8643 61.2141ZM22.3195 63.8718C23.0771 63.8718 23.767 64.1087 24.3352 64.5131L29.1281 57.7778C27.2063 56.4103 24.8508 55.6052 22.3195 55.6052V63.8718ZM18.8346 67.3567C18.8346 65.432 20.3949 63.8718 22.3195 63.8718V55.6052C15.8294 55.6052 10.568 60.8666 10.568 67.3567H18.8346ZM18.8346 88.6875V67.3567H10.568V88.6875H18.8346ZM11.9445 92.2171C12.318 92.2171 12.6613 92.298 12.9673 92.4395L16.4353 84.9356C15.0643 84.302 13.5398 83.9505 11.9445 83.9505V92.2171ZM10.5791 92.2171H11.9445V83.9505H10.5791V92.2171ZM8.13353 94.6627C8.13353 93.312 9.22846 92.2171 10.5791 92.2171V83.9505C4.66298 83.9505 -0.133016 88.7465 -0.133016 94.6627H8.13353ZM8.13353 108.465V94.6627H-0.133016V108.465H8.13353ZM8.1471 108.728C8.13822 108.643 8.13353 108.555 8.13353 108.465H-0.133016C-0.133016 108.843 -0.11331 109.217 -0.0746102 109.587L8.1471 108.728ZM8.69728 111.986C8.22505 111.167 8.07562 110.334 8.15062 109.552L-0.0781283 108.763C-0.312893 111.209 0.182576 113.768 1.53606 116.116L8.69728 111.986ZM15.791 124.288L8.69728 111.986L1.53606 116.116L8.62973 128.417L15.791 124.288ZM21.6514 129.492C19.2246 128.453 17.1524 126.649 15.791 124.288L8.62973 128.417C10.8993 132.353 14.3552 135.36 18.396 137.091L21.6514 129.492ZM24.157 142.767V133.291H15.8904V142.767H24.157ZM24.157 142.767H24.157H15.8904C15.8904 147.333 19.5915 151.034 24.157 151.034V142.767ZM49.4508 142.767H24.157V151.034H49.4508V142.767ZM49.4508 142.767V151.034C54.0163 151.034 57.7174 147.333 57.7174 142.767H49.4508ZM49.4508 131.258V142.767H57.7174V131.258H49.4508ZM55.5357 121.39C54.7927 124.084 53.1967 126.361 51.0836 127.967L56.0846 134.549C59.6012 131.877 62.2667 128.077 63.5047 123.588L55.5357 121.39ZM58.3955 111.02L55.5357 121.39L63.5047 123.588L66.3646 113.218L58.3955 111.02ZM58.5465 110.048C58.5355 110.361 58.4877 110.686 58.3955 111.02L66.3646 113.218C66.6288 112.26 66.7743 111.295 66.808 110.339L58.5465 110.048ZM63.0884 106.06H62.6773V114.326H63.0884V106.06ZM58.9552 78.1847V110.193H67.2217V78.1847H58.9552ZM63.0866 82.318H63.0884V74.0514H63.0866V82.318ZM58.9533 71.0091V78.1847H67.2198V71.0091H58.9533ZM56.939 68.9948C58.0515 68.9948 58.9533 69.8967 58.9533 71.0091H67.2198C67.2198 65.3312 62.6169 60.7283 56.939 60.7283V68.9948ZM55.7564 69.378C56.088 69.1363 56.4909 68.9948 56.939 68.9948V60.7283C54.683 60.7283 52.5858 61.4597 50.8876 62.6974L55.7564 69.378ZM46.4534 63.8715C47.8957 63.8715 49.0834 64.9805 49.2037 66.3894L57.4403 65.686C56.9579 60.0367 52.2254 55.6049 46.4534 55.6049V63.8715Z" fill="#24CD88" mask="url(#path-8-inside-2_510_8655)"/>
<line x1="16.7561" y1="78.7563" x2="16.7561" y2="100.513" stroke="#24CD88" stroke-width="4.13327"/>
<line x1="28.6604" y1="63.5752" x2="28.6604" y2="85.3321" stroke="#24CD88" stroke-width="4.13327"/>
<line x1="39.8869" y1="63.5752" x2="39.8869" y2="85.3321" stroke="#24CD88" stroke-width="4.13327"/>
<line x1="51.3977" y1="67.8779" x2="51.3977" y2="85.3321" stroke="#24CD88" stroke-width="4.13327"/>
<mask id="path-14-inside-3_510_8655" fill="white">
<path fill-rule="evenodd" clip-rule="evenodd" d="M202.959 59.7382C201.257 59.7382 199.698 60.3554 198.496 61.3782V61.2747C198.496 57.0609 195.08 53.645 190.866 53.645C186.695 53.645 183.306 56.9913 183.237 61.1454C181.993 60.2595 180.47 59.7385 178.825 59.7385C174.618 59.7385 171.207 63.1493 171.207 67.3567V88.6875C170.369 88.3 169.435 88.0838 168.45 88.0838H167.085C163.452 88.0838 160.506 91.0292 160.506 94.6627V108.465C160.506 108.699 160.518 108.93 160.542 109.157C160.387 110.771 160.71 112.468 161.623 114.051L168.716 126.352C170.532 129.501 173.296 131.906 176.53 133.291V142.767C176.53 145.05 178.38 146.9 180.663 146.9H205.957C208.239 146.9 210.09 145.05 210.09 142.767V131.258C212.905 129.119 215.036 126.081 216.026 122.489L218.886 112.119C219.064 111.473 219.161 110.828 219.183 110.193H219.594V78.1847H219.592V71.0091C219.592 67.6139 216.84 64.8616 213.445 64.8616C212.093 64.8616 210.843 65.298 209.828 66.0377C209.526 62.5086 206.566 59.7382 202.959 59.7382Z"/>
</mask>
<path fill-rule="evenodd" clip-rule="evenodd" d="M202.959 59.7382C201.257 59.7382 199.698 60.3554 198.496 61.3782V61.2747C198.496 57.0609 195.08 53.645 190.866 53.645C186.695 53.645 183.306 56.9913 183.237 61.1454C181.993 60.2595 180.47 59.7385 178.825 59.7385C174.618 59.7385 171.207 63.1493 171.207 67.3567V88.6875C170.369 88.3 169.435 88.0838 168.45 88.0838H167.085C163.452 88.0838 160.506 91.0292 160.506 94.6627V108.465C160.506 108.699 160.518 108.93 160.542 109.157C160.387 110.771 160.71 112.468 161.623 114.051L168.716 126.352C170.532 129.501 173.296 131.906 176.53 133.291V142.767C176.53 145.05 178.38 146.9 180.663 146.9H205.957C208.239 146.9 210.09 145.05 210.09 142.767V131.258C212.905 129.119 215.036 126.081 216.026 122.489L218.886 112.119C219.064 111.473 219.161 110.828 219.183 110.193H219.594V78.1847H219.592V71.0091C219.592 67.6139 216.84 64.8616 213.445 64.8616C212.093 64.8616 210.843 65.298 209.828 66.0377C209.526 62.5086 206.566 59.7382 202.959 59.7382Z" fill="white"/>
<path d="M198.496 61.3782H194.362V70.319L201.173 64.5268L198.496 61.3782ZM183.237 61.1454L180.841 64.5131L187.24 69.0665L187.37 61.2141L183.237 61.1454ZM171.207 88.6875L169.473 92.4395L175.34 95.1511V88.6875H171.207ZM160.542 109.157L164.656 109.552L164.696 109.14L164.653 108.728L160.542 109.157ZM161.623 114.051L158.042 116.116H158.042L161.623 114.051ZM168.716 126.352L172.297 124.288H172.297L168.716 126.352ZM176.53 133.291H180.663V130.566L178.157 129.492L176.53 133.291ZM210.09 131.258L207.589 127.967L205.957 129.207V131.258H210.09ZM216.026 122.489L212.042 121.39L216.026 122.489ZM218.886 112.119L214.901 111.02V111.02L218.886 112.119ZM219.183 110.193V106.06H215.193L215.052 110.048L219.183 110.193ZM219.594 110.193V114.326H223.728V110.193H219.594ZM219.594 78.1847H223.728V74.0514H219.594V78.1847ZM219.592 78.1847H215.459V82.318H219.592V78.1847ZM209.828 66.0377L205.71 66.3894L206.334 73.6988L212.262 69.378L209.828 66.0377ZM201.173 64.5268C201.657 64.1157 202.274 63.8715 202.959 63.8715V55.6049C200.239 55.6049 197.74 56.595 195.818 58.2295L201.173 64.5268ZM194.362 61.2747V61.3782H202.629V61.2747H194.362ZM190.866 57.7783C192.797 57.7783 194.362 59.3437 194.362 61.2747H202.629C202.629 54.7782 197.363 49.5117 190.866 49.5117V57.7783ZM187.37 61.2141C187.402 59.3118 188.955 57.7783 190.866 57.7783V49.5117C184.436 49.5117 179.211 54.6708 179.105 61.0768L187.37 61.2141ZM178.825 63.8718C179.583 63.8718 180.273 64.1087 180.841 64.5131L185.634 57.7778C183.712 56.4103 181.357 55.6052 178.825 55.6052V63.8718ZM175.34 67.3567C175.34 65.432 176.901 63.8718 178.825 63.8718V55.6052C172.335 55.6052 167.074 60.8666 167.074 67.3567H175.34ZM175.34 88.6875V67.3567H167.074V88.6875H175.34ZM168.45 92.2171C168.824 92.2171 169.167 92.298 169.473 92.4395L172.941 84.9356C171.57 84.302 170.046 83.9505 168.45 83.9505V92.2171ZM167.085 92.2171H168.45V83.9505H167.085V92.2171ZM164.639 94.6627C164.639 93.312 165.734 92.2171 167.085 92.2171V83.9505C161.169 83.9505 156.373 88.7465 156.373 94.6627H164.639ZM164.639 108.465V94.6627H156.373V108.465H164.639ZM164.653 108.728C164.644 108.643 164.639 108.555 164.639 108.465H156.373C156.373 108.843 156.393 109.217 156.431 109.587L164.653 108.728ZM165.203 111.986C164.731 111.167 164.581 110.334 164.656 109.552L156.428 108.763C156.193 111.209 156.688 113.768 158.042 116.116L165.203 111.986ZM172.297 124.288L165.203 111.986L158.042 116.116L165.136 128.417L172.297 124.288ZM178.157 129.492C175.73 128.453 173.658 126.649 172.297 124.288L165.136 128.417C167.405 132.353 170.861 135.36 174.902 137.091L178.157 129.492ZM180.663 142.767V133.291H172.396V142.767H180.663ZM180.663 142.767H180.663H172.396C172.396 147.333 176.097 151.034 180.663 151.034V142.767ZM205.957 142.767H180.663V151.034H205.957V142.767ZM205.957 142.767V151.034C210.522 151.034 214.223 147.333 214.223 142.767H205.957ZM205.957 131.258V142.767H214.223V131.258H205.957ZM212.042 121.39C211.299 124.084 209.703 126.361 207.589 127.967L212.59 134.549C216.107 131.877 218.773 128.077 220.011 123.588L212.042 121.39ZM214.901 111.02L212.042 121.39L220.011 123.588L222.87 113.218L214.901 111.02ZM215.052 110.048C215.041 110.361 214.994 110.686 214.901 111.02L222.87 113.218C223.135 112.26 223.28 111.295 223.314 110.339L215.052 110.048ZM219.594 106.06H219.183V114.326H219.594V106.06ZM215.461 78.1847V110.193H223.728V78.1847H215.461ZM219.592 82.318H219.594V74.0514H219.592V82.318ZM215.459 71.0091V78.1847H223.726V71.0091H215.459ZM213.445 68.9948C214.557 68.9948 215.459 69.8967 215.459 71.0091H223.726C223.726 65.3312 219.123 60.7283 213.445 60.7283V68.9948ZM212.262 69.378C212.594 69.1363 212.997 68.9948 213.445 68.9948V60.7283C211.189 60.7283 209.092 61.4597 207.393 62.6974L212.262 69.378ZM202.959 63.8715C204.402 63.8715 205.589 64.9805 205.71 66.3894L213.946 65.686C213.464 60.0367 208.731 55.6049 202.959 55.6049V63.8715Z" fill="#24CD88" mask="url(#path-14-inside-3_510_8655)"/>
<line x1="173.258" y1="78.7563" x2="173.258" y2="100.513" stroke="#24CD88" stroke-width="4.13327"/>
<line x1="185.165" y1="63.5752" x2="185.165" y2="85.3321" stroke="#24CD88" stroke-width="4.13327"/>
<line x1="196.388" y1="63.5752" x2="196.388" y2="85.3321" stroke="#24CD88" stroke-width="4.13327"/>
<line x1="207.901" y1="67.8779" x2="207.901" y2="85.3321" stroke="#24CD88" stroke-width="4.13327"/>
<path d="M185.365 25.2688C186.016 25.5611 186.016 26.4845 185.365 26.7768L168.299 34.4471C167.752 34.693 167.134 34.2928 167.134 33.6931L167.134 18.3525C167.134 17.7528 167.752 17.3527 168.299 17.5985L185.365 25.2688Z" fill="#D8FFDA" stroke="url(#paint1_linear_510_8655)" stroke-width="4.13327"/>
</g>
<defs>
<filter id="filter0_d_510_8655" x="-0.000976562" y="0.900391" width="223.596" height="154" filterUnits="userSpaceOnUse" color-interpolation-filters="sRGB">
<feFlood flood-opacity="0" result="BackgroundImageFix"/>
<feColorMatrix in="SourceAlpha" type="matrix" values="0 0 0 0 0 0 0 0 0 0 0 0 0 0 0 0 0 0 127 0" result="hardAlpha"/>
<feOffset dy="4"/>
<feGaussianBlur stdDeviation="2"/>
<feComposite in2="hardAlpha" operator="out"/>
<feColorMatrix type="matrix" values="0 0 0 0 0 0 0 0 0 0 0 0 0 0 0 0 0 0 0.25 0"/>
<feBlend mode="normal" in2="BackgroundImageFix" result="effect1_dropShadow_510_8655"/>
<feBlend mode="normal" in="SourceGraphic" in2="effect1_dropShadow_510_8655" result="shape"/>
</filter>
<linearGradient id="paint0_linear_510_8655" x1="109.867" y1="15.1328" x2="109.867" y2="36.8897" gradientUnits="userSpaceOnUse">
<stop stop-color="#22CC87"/>
<stop offset="1" stop-color="#04C375"/>
</linearGradient>
<linearGradient id="paint1_linear_510_8655" x1="187.043" y1="26.0228" x2="160.497" y2="26.0228" gradientUnits="userSpaceOnUse">
<stop stop-color="#21CC87"/>
<stop offset="1" stop-color="#07C477"/>
</linearGradient>
</defs>
</svg>
