<svg width="38" height="39" viewBox="0 0 38 39" fill="none" xmlns="http://www.w3.org/2000/svg">
<path fill-rule="evenodd" clip-rule="evenodd" d="M18.9999 2.16699C9.38117 2.16699 1.58325 9.96491 1.58325 19.5837C1.58325 29.2024 9.38117 37.0003 18.9999 37.0003C28.6187 37.0003 36.4166 29.2024 36.4166 19.5837C36.4166 9.96491 28.6187 2.16699 18.9999 2.16699ZM20.5833 11.667C20.5833 11.2471 20.4164 10.8443 20.1195 10.5474C19.8226 10.2505 19.4198 10.0837 18.9999 10.0837C18.58 10.0837 18.1773 10.2505 17.8803 10.5474C17.5834 10.8443 17.4166 11.2471 17.4166 11.667V21.167C17.4166 21.5869 17.5834 21.9896 17.8803 22.2866C18.1773 22.5835 18.58 22.7503 18.9999 22.7503C19.4198 22.7503 19.8226 22.5835 20.1195 22.2866C20.4164 21.9896 20.5833 21.5869 20.5833 21.167V11.667ZM20.5833 26.7087C20.5833 26.2887 20.4164 25.886 20.1195 25.5891C19.8226 25.2921 19.4198 25.1253 18.9999 25.1253C18.58 25.1253 18.1773 25.2921 17.8803 25.5891C17.5834 25.886 17.4166 26.2887 17.4166 26.7087V27.5003C17.4166 27.9202 17.5834 28.323 17.8803 28.6199C18.1773 28.9168 18.58 29.0837 18.9999 29.0837C19.4198 29.0837 19.8226 28.9168 20.1195 28.6199C20.4164 28.323 20.5833 27.9202 20.5833 27.5003V26.7087Z" fill="#FF8080"/>
</svg>
