<svg width="33" height="33" viewBox="0 0 33 33" fill="none" xmlns="http://www.w3.org/2000/svg">
<path d="M17.0388 4.03408C16.9149 3.90911 16.7674 3.80991 16.6049 3.74222C16.4425 3.67453 16.2682 3.63968 16.0922 3.63968C15.9161 3.63968 15.7419 3.67453 15.5794 3.74222C15.4169 3.80991 15.2694 3.90911 15.1455 4.03408L3.1455 16.0341C3.02053 16.158 2.92133 16.3055 2.85364 16.468C2.78595 16.6305 2.7511 16.8047 2.7511 16.9807C2.7511 17.1568 2.78595 17.331 2.85364 17.4935C2.92133 17.656 3.02053 17.8035 3.1455 17.9274C3.27008 18.051 3.41784 18.1487 3.58029 18.2151C3.74274 18.2815 3.91669 18.3151 4.09216 18.3141H5.4255V27.6474C5.4255 28.3547 5.70645 29.0329 6.20654 29.533C6.70664 30.0331 7.38492 30.3141 8.09216 30.3141H24.0922C24.7994 30.3141 25.4777 30.0331 25.9778 29.533C26.4779 29.0329 26.7588 28.3547 26.7588 27.6474V18.3141H28.0922C28.4458 18.3141 28.7849 18.1736 29.035 17.9235C29.285 17.6735 29.4255 17.3344 29.4255 16.9807C29.4265 16.8053 29.3929 16.6313 29.3265 16.4689C29.2602 16.3064 29.1624 16.1587 29.0388 16.0341L17.0388 4.03408ZM8.09216 27.6474V14.8607L16.0922 6.86074L24.0922 14.8607V27.6474H8.09216Z" fill="black"/>
</svg>
