<svg width="32" height="32" viewBox="0 0 32 32" fill="none" xmlns="http://www.w3.org/2000/svg">
<path d="M27.2746 19.7145L24.9496 17.3766V11.6157C24.9805 9.47651 24.2364 7.39832 22.8547 5.76492C21.4729 4.13151 19.5469 3.05319 17.4321 2.72907C16.2048 2.56744 14.9571 2.66941 13.7723 3.02818C12.5875 3.38696 11.4929 3.99428 10.5614 4.80963C9.6299 5.62498 8.88301 6.62961 8.37056 7.75648C7.8581 8.88336 7.59187 10.1066 7.58961 11.3445V17.3766L5.26461 19.7145C4.97257 20.0114 4.77453 20.3878 4.69524 20.7966C4.61595 21.2055 4.65894 21.6286 4.81882 22.0132C4.97871 22.3977 5.2484 22.7266 5.59418 22.9587C5.93995 23.1909 6.34648 23.3159 6.76294 23.3182H11.1029V23.7574C11.1633 25.0687 11.741 26.3026 12.7094 27.1887C13.6779 28.0749 14.9581 28.541 16.2696 28.4849C17.5811 28.541 18.8613 28.0749 19.8298 27.1887C20.7983 26.3026 21.3759 25.0687 21.4363 23.7574V23.3182H25.7763C26.1927 23.3159 26.5993 23.1909 26.945 22.9587C27.2908 22.7266 27.5605 22.3977 27.7204 22.0132C27.8803 21.6286 27.9233 21.2055 27.844 20.7966C27.7647 20.3878 27.5666 20.0114 27.2746 19.7145ZM18.8529 23.7574C18.7813 24.3787 18.4727 24.9484 17.9915 25.3478C17.5103 25.7472 16.8935 25.9456 16.2696 25.9016C15.6458 25.9456 15.029 25.7472 14.5477 25.3478C14.0665 24.9484 13.7579 24.3787 13.6863 23.7574V23.3182H18.8529V23.7574ZM7.88669 20.7349L9.41086 19.2107C9.65261 18.9704 9.84442 18.6846 9.97521 18.3698C10.106 18.055 10.1732 17.7175 10.1729 17.3766V11.3445C10.1736 10.4731 10.3607 9.612 10.7216 8.8189C11.0825 8.0258 11.6089 7.31907 12.2654 6.74615C12.9131 6.15932 13.6806 5.72024 14.5147 5.4593C15.3488 5.19836 16.2296 5.1218 17.0963 5.2349C18.5901 5.47744 19.9459 6.25146 20.9143 7.41443C21.8827 8.57741 22.3983 10.0511 22.3663 11.5641V17.3766C22.3643 17.7165 22.4295 18.0536 22.558 18.3683C22.6866 18.6831 22.876 18.9693 23.1154 19.2107L24.6525 20.7349H7.88669Z" fill="#7C7268"/>
</svg>
