<svg width="28" height="28" viewBox="0 0 28 28" fill="none" xmlns="http://www.w3.org/2000/svg">
<path d="M23.0236 20.6383C22.5323 19.4747 21.8194 18.4178 20.9246 17.5264C20.0325 16.6324 18.9757 15.9196 17.8126 15.4274C17.8022 15.4222 17.7918 15.4196 17.7814 15.4144C19.4038 14.2425 20.4585 12.3337 20.4585 10.18C20.4585 6.6123 17.5678 3.72168 14.0001 3.72168C10.4324 3.72168 7.54179 6.6123 7.54179 10.18C7.54179 12.3337 8.59647 14.2425 10.2189 15.417C10.2085 15.4222 10.198 15.4248 10.1876 15.43C9.02095 15.9222 7.97408 16.6279 7.07564 17.529C6.18166 18.4211 5.46888 19.4779 4.97668 20.641C4.49315 21.7796 4.23237 23.0004 4.20845 24.2373C4.20776 24.2651 4.21263 24.2927 4.22279 24.3186C4.23295 24.3445 4.24819 24.3681 4.2676 24.388C4.28702 24.4079 4.31022 24.4237 4.33584 24.4345C4.36146 24.4453 4.38899 24.4509 4.41679 24.4508H5.97929C6.09387 24.4508 6.18502 24.3597 6.18762 24.2477C6.2397 22.2373 7.047 20.3545 8.47408 18.9274C9.95064 17.4508 11.9116 16.6383 14.0001 16.6383C16.0887 16.6383 18.0496 17.4508 19.5262 18.9274C20.9532 20.3545 21.7605 22.2373 21.8126 24.2477C21.8152 24.3623 21.9064 24.4508 22.021 24.4508H23.5835C23.6113 24.4509 23.6388 24.4453 23.6644 24.4345C23.69 24.4237 23.7132 24.4079 23.7326 24.388C23.7521 24.3681 23.7673 24.3445 23.7774 24.3186C23.7876 24.2927 23.7925 24.2651 23.7918 24.2373C23.7657 22.9925 23.5079 21.7816 23.0236 20.6383ZM14.0001 14.6592C12.8048 14.6592 11.6798 14.193 10.8335 13.3467C9.9871 12.5003 9.52095 11.3753 9.52095 10.18C9.52095 8.9847 9.9871 7.8597 10.8335 7.01335C11.6798 6.16699 12.8048 5.70085 14.0001 5.70085C15.1954 5.70085 16.3204 6.16699 17.1668 7.01335C18.0131 7.8597 18.4793 8.9847 18.4793 10.18C18.4793 11.3753 18.0131 12.5003 17.1668 13.3467C16.3204 14.193 15.1954 14.6592 14.0001 14.6592Z" fill="#677A90"/>
</svg>
