<svg width="21" height="20" viewBox="0 0 21 20" fill="none" xmlns="http://www.w3.org/2000/svg">
<g clip-path="url(#clip0_510_5780)">
<path d="M20.3008 10C20.3008 12.6522 19.2472 15.1957 17.3718 17.0711C15.4965 18.9464 12.9529 20 10.3008 20C7.64862 20 5.10508 18.9464 3.22971 17.0711C1.35435 15.1957 0.300781 12.6522 0.300781 10C0.300781 7.34784 1.35435 4.8043 3.22971 2.92893C5.10508 1.05357 7.64862 0 10.3008 0C12.9529 0 15.4965 1.05357 17.3718 2.92893C19.2472 4.8043 20.3008 7.34784 20.3008 10ZM15.3383 6.2125C15.249 6.12352 15.1427 6.05347 15.0257 6.00652C14.9087 5.95957 14.7835 5.9367 14.6574 5.93926C14.5314 5.94183 14.4072 5.96979 14.2922 6.02146C14.1772 6.07313 14.0739 6.14746 13.9883 6.24L9.64703 11.7712L7.03078 9.15375C6.85306 8.98815 6.618 8.898 6.37513 8.90228C6.13225 8.90657 5.90052 9.00496 5.72875 9.17672C5.55699 9.34849 5.4586 9.58022 5.45431 9.8231C5.45003 10.066 5.54018 10.301 5.70578 10.4788L9.01328 13.7875C9.10238 13.8764 9.20849 13.9465 9.32526 13.9936C9.44204 14.0406 9.56709 14.0637 9.69296 14.0613C9.81884 14.059 9.94295 14.0313 10.0579 13.98C10.1729 13.9286 10.2763 13.8547 10.362 13.7625L15.352 7.525C15.5221 7.34812 15.6161 7.11159 15.6138 6.8662C15.6115 6.6208 15.513 6.3861 15.3395 6.2125H15.3383Z" fill="white"/>
</g>
<defs>
<clipPath id="clip0_510_5780">
<rect width="20" height="20" fill="white" transform="translate(0.300781)"/>
</clipPath>
</defs>
</svg>
