<svg width="31" height="30" viewBox="0 0 31 30" fill="none" xmlns="http://www.w3.org/2000/svg">
<path d="M18.6633 8.38771C18.7791 8.50335 18.8711 8.64071 18.9338 8.79193C18.9965 8.94315 19.0288 9.10525 19.0288 9.26896C19.0288 9.43267 18.9965 9.59477 18.9338 9.74599C18.8711 9.89721 18.7791 10.0346 18.6633 10.1502L13.8133 15.0002L18.6633 19.8502C18.897 20.0839 19.0283 20.4009 19.0283 20.7315C19.0283 21.062 18.897 21.379 18.6633 21.6127C18.4295 21.8464 18.1125 21.9777 17.782 21.9777C17.4515 21.9777 17.1345 21.8464 16.9008 21.6127L11.1633 15.8752C11.0474 15.7596 10.9554 15.6222 10.8927 15.471C10.83 15.3198 10.7977 15.1577 10.7977 14.994C10.7977 14.8302 10.83 14.6681 10.8927 14.5169C10.9554 14.3657 11.0474 14.2284 11.1633 14.1127L16.9008 8.37521C17.3758 7.90021 18.1758 7.90021 18.6633 8.38771Z" fill="#677A90"/>
</svg>
