<svg width="29" height="29" viewBox="0 0 29 29" fill="none" xmlns="http://www.w3.org/2000/svg">
<path d="M20.9589 18.7088C20.6155 17.8953 20.1171 17.1564 19.4916 16.5333C18.868 15.9083 18.1292 15.41 17.3161 15.066C17.3088 15.0623 17.3015 15.0605 17.2943 15.0569C18.4284 14.2376 19.1657 12.9032 19.1657 11.3977C19.1657 8.90357 17.145 6.88281 14.6509 6.88281C12.1568 6.88281 10.136 8.90357 10.136 11.3977C10.136 12.9032 10.8733 14.2376 12.0075 15.0587C12.0002 15.0623 11.993 15.0641 11.9857 15.0678C11.1701 15.4119 10.4382 15.9052 9.81017 16.5351C9.18521 17.1588 8.68693 17.8975 8.34285 18.7106C8.00482 19.5066 7.82252 20.3601 7.8058 21.2247C7.80532 21.2441 7.80872 21.2635 7.81582 21.2816C7.82293 21.2997 7.83358 21.3161 7.84715 21.3301C7.86072 21.344 7.87694 21.355 7.89485 21.3626C7.91276 21.3701 7.93201 21.374 7.95144 21.374H9.04374C9.12384 21.374 9.18756 21.3103 9.18938 21.232C9.22579 19.8266 9.79015 18.5104 10.7878 17.5127C11.82 16.4805 13.1908 15.9125 14.6509 15.9125C16.1109 15.9125 17.4818 16.4805 18.514 17.5127C19.5116 18.5104 20.076 19.8266 20.1124 21.232C20.1142 21.3121 20.1779 21.374 20.258 21.374H21.3503C21.3698 21.374 21.389 21.3701 21.4069 21.3626C21.4248 21.355 21.441 21.344 21.4546 21.3301C21.4682 21.3161 21.4788 21.2997 21.4859 21.2816C21.493 21.2635 21.4965 21.2441 21.496 21.2247C21.4778 20.3545 21.2975 19.508 20.9589 18.7088ZM14.6509 14.5289C13.8153 14.5289 13.0288 14.203 12.4372 13.6114C11.8455 13.0197 11.5196 12.2333 11.5196 11.3977C11.5196 10.562 11.8455 9.77559 12.4372 9.18393C13.0288 8.59226 13.8153 8.26639 14.6509 8.26639C15.4865 8.26639 16.273 8.59226 16.8646 9.18393C17.4563 9.77559 17.7821 10.562 17.7821 11.3977C17.7821 12.2333 17.4563 13.0197 16.8646 13.6114C16.273 14.203 15.4865 14.5289 14.6509 14.5289Z" fill="#677A90"/>
</svg>
