<svg width="25" height="25" viewBox="0 0 25 25" fill="none" xmlns="http://www.w3.org/2000/svg">
<path d="M17.1506 9.7832C17.1506 8.45712 16.6238 7.18535 15.6861 6.24767C14.7484 5.30999 13.4767 4.7832 12.1506 4.7832C10.8245 4.7832 9.55272 5.30999 8.61504 6.24767C7.67736 7.18535 7.15057 8.45712 7.15057 9.7832C7.15057 10.0484 7.25593 10.3028 7.44347 10.4903C7.631 10.6778 7.88536 10.7832 8.15057 10.7832C8.41579 10.7832 8.67014 10.6778 8.85768 10.4903C9.04522 10.3028 9.15057 10.0484 9.15057 9.7832C9.15057 9.18986 9.32652 8.60984 9.65617 8.11649C9.98581 7.62314 10.4543 7.23863 11.0025 7.01156C11.5507 6.7845 12.1539 6.72509 12.7358 6.84085C13.3178 6.9566 13.8523 7.24233 14.2719 7.66188C14.6915 8.08144 14.9772 8.61599 15.0929 9.19793C15.2087 9.77988 15.1493 10.3831 14.9222 10.9313C14.6951 11.4794 14.3106 11.948 13.8173 12.2776C13.3239 12.6073 12.7439 12.7832 12.1506 12.7832C11.8854 12.7832 11.631 12.8886 11.4435 13.0761C11.2559 13.2636 11.1506 13.518 11.1506 13.7832V15.7832C11.1506 16.0484 11.2559 16.3028 11.4435 16.4903C11.631 16.6778 11.8854 16.7832 12.1506 16.7832C12.4158 16.7832 12.6701 16.6778 12.8577 16.4903C13.0452 16.3028 13.1506 16.0484 13.1506 15.7832V14.6832C14.2799 14.4527 15.295 13.839 16.0239 12.9461C16.7528 12.0532 17.1508 10.9359 17.1506 9.7832Z" fill="#677A91"/>
<path d="M12.1506 20.7832C12.7029 20.7832 13.1506 20.3355 13.1506 19.7832C13.1506 19.2309 12.7029 18.7832 12.1506 18.7832C11.5983 18.7832 11.1506 19.2309 11.1506 19.7832C11.1506 20.3355 11.5983 20.7832 12.1506 20.7832Z" fill="#677A91"/>
</svg>
