<svg width="33" height="33" viewBox="0 0 33 33"  xmlns="http://www.w3.org/2000/svg">
<path d="M27.306 24.854C26.7165 23.4577 25.861 22.1893 24.7872 21.1196C23.7167 20.0469 22.4486 19.1915 21.0529 18.6009C21.0404 18.5946 21.0279 18.5915 21.0154 18.5853C22.9622 17.179 24.2279 14.8884 24.2279 12.304C24.2279 8.02277 20.7591 4.55402 16.4779 4.55402C12.1966 4.55402 8.72786 8.02277 8.72786 12.304C8.72786 14.8884 9.99349 17.179 11.9404 18.5884C11.9279 18.5946 11.9154 18.5978 11.9029 18.604C10.5029 19.1946 9.24661 20.0415 8.16849 21.1228C7.0957 22.1933 6.24038 23.4614 5.64974 24.8571C5.06949 26.2236 4.75655 27.6885 4.72786 29.1728C4.72703 29.2061 4.73288 29.2393 4.74507 29.2704C4.75726 29.3014 4.77554 29.3297 4.79884 29.3536C4.82214 29.3775 4.84998 29.3965 4.88072 29.4094C4.91147 29.4224 4.9445 29.429 4.97786 29.429H6.85286C6.99036 29.429 7.09974 29.3196 7.10286 29.1853C7.16536 26.7728 8.13411 24.5134 9.84661 22.8009C11.6185 21.029 13.9716 20.054 16.4779 20.054C18.9841 20.054 21.3372 21.029 23.1091 22.8009C24.8216 24.5134 25.7904 26.7728 25.8529 29.1853C25.856 29.3228 25.9654 29.429 26.1029 29.429H27.9779C28.0112 29.429 28.0443 29.4224 28.075 29.4094C28.1057 29.3965 28.1336 29.3775 28.1569 29.3536C28.1802 29.3297 28.1985 29.3014 28.2107 29.2704C28.2228 29.2393 28.2287 29.2061 28.2279 29.1728C28.1966 27.679 27.8872 26.2259 27.306 24.854ZM16.4779 17.679C15.0435 17.679 13.6935 17.1196 12.6779 16.104C11.6622 15.0884 11.1029 13.7384 11.1029 12.304C11.1029 10.8696 11.6622 9.51964 12.6779 8.50402C13.6935 7.48839 15.0435 6.92902 16.4779 6.92902C17.9122 6.92902 19.2622 7.48839 20.2779 8.50402C21.2935 9.51964 21.8529 10.8696 21.8529 12.304C21.8529 13.7384 21.2935 15.0884 20.2779 16.104C19.2622 17.1196 17.9122 17.679 16.4779 17.679Z" fill="black"/>
</svg>
