<svg width="29" height="29" viewBox="0 0 29 29" fill="none" xmlns="http://www.w3.org/2000/svg">
<g clip-path="url(#clip0_1398_206)">
<path d="M15.4692 4.82918C21.1392 4.82918 25.7359 9.42585 25.7359 15.0958C25.7359 20.7659 21.1392 25.3625 15.4692 25.3625C9.7992 25.3625 5.20253 20.7659 5.20253 15.0958C5.20253 14.8924 5.20814 14.6898 5.22027 14.4892C5.25854 13.8293 4.76293 13.2292 4.1012 13.2292C3.47213 13.2292 2.9308 13.6902 2.89254 14.3184C2.8776 14.575 2.8692 14.8345 2.8692 15.0958C2.8692 22.0548 8.51027 27.6959 15.4692 27.6959C22.4281 27.6959 28.0692 22.0548 28.0692 15.0958C28.0692 8.13692 22.4281 2.49585 15.4692 2.49585C12.4629 2.49585 9.7012 3.54865 7.53587 5.30612V4.59585C7.53587 4.28643 7.41295 3.98968 7.19416 3.77089C6.97537 3.5521 6.67862 3.42918 6.3692 3.42918C6.05978 3.42918 5.76304 3.5521 5.54424 3.77089C5.32545 3.98968 5.20253 4.28643 5.20253 4.59585V8.79585C5.20253 9.43985 5.7252 9.96252 6.3692 9.96252H10.5692C10.8786 9.96252 11.1754 9.8396 11.3942 9.62081C11.613 9.40202 11.7359 9.10527 11.7359 8.79585C11.7359 8.48643 11.613 8.18968 11.3942 7.97089C11.1754 7.7521 10.8786 7.62918 10.5692 7.62918H8.42253C10.2612 5.89318 12.7411 4.82918 15.4692 4.82918ZM16.8692 8.79585C16.8692 8.48643 16.7463 8.18968 16.5275 7.97089C16.3087 7.7521 16.012 7.62918 15.7025 7.62918C15.3931 7.62918 15.0964 7.7521 14.8776 7.97089C14.6588 8.18968 14.5359 8.48643 14.5359 8.79585V14.8625C14.5359 15.5065 15.0585 16.0292 15.7025 16.0292H18.9692C19.2786 16.0292 19.5754 15.9063 19.7942 15.6875C20.013 15.4687 20.1359 15.1719 20.1359 14.8625C20.1359 14.5531 20.013 14.2564 19.7942 14.0376C19.5754 13.8188 19.2786 13.6958 18.9692 13.6958H16.8692V8.79585Z" fill="#677A90"/>
</g>
<defs>
<clipPath id="clip0_1398_206">
<rect width="28" height="28" fill="white" transform="translate(0.535889 0.162598)"/>
</clipPath>
</defs>
</svg>
