<svg width="32" height="32" viewBox="0 0 31 31" fill="none" xmlns="http://www.w3.org/2000/svg">
<g clip-path="url(#clip0_1420_127)">
<path d="M15.4692 4.82927C21.1392 4.82927 25.7359 9.42594 25.7359 15.0959C25.7359 20.7659 21.1392 25.3626 15.4692 25.3626C9.79922 25.3626 5.20255 20.7659 5.20255 15.0959C5.20255 14.8925 5.20815 14.6899 5.22029 14.4893C5.25855 13.8294 4.76295 13.2293 4.10122 13.2293C3.47215 13.2293 2.93082 13.6903 2.89255 14.3185C2.87762 14.5751 2.86922 14.8346 2.86922 15.0959C2.86922 22.0549 8.51029 27.6959 15.4692 27.6959C22.4282 27.6959 28.0692 22.0549 28.0692 15.0959C28.0692 8.13701 22.4282 2.49594 15.4692 2.49594C12.463 2.49594 9.70122 3.54874 7.53589 5.30621V4.59594C7.53589 4.28652 7.41297 3.98978 7.19418 3.77098C6.97539 3.55219 6.67864 3.42927 6.36922 3.42927C6.0598 3.42927 5.76306 3.55219 5.54426 3.77098C5.32547 3.98978 5.20255 4.28652 5.20255 4.59594V8.79594C5.20255 9.43994 5.72522 9.96261 6.36922 9.96261H10.5692C10.8786 9.96261 11.1754 9.83969 11.3942 9.6209C11.613 9.40211 11.7359 9.10536 11.7359 8.79594C11.7359 8.48652 11.613 8.18978 11.3942 7.97098C11.1754 7.75219 10.8786 7.62927 10.5692 7.62927H8.42255C10.2612 5.89327 12.7411 4.82927 15.4692 4.82927ZM16.8692 8.79594C16.8692 8.48652 16.7463 8.18978 16.5275 7.97098C16.3087 7.75219 16.012 7.62927 15.7026 7.62927C15.3931 7.62927 15.0964 7.75219 14.8776 7.97098C14.6588 8.18978 14.5359 8.48652 14.5359 8.79594V14.8626C14.5359 15.5066 15.0586 16.0293 15.7026 16.0293H18.9692C19.2786 16.0293 19.5754 15.9064 19.7942 15.6876C20.013 15.4688 20.1359 15.172 20.1359 14.8626C20.1359 14.5532 20.013 14.2564 19.7942 14.0376C19.5754 13.8189 19.2786 13.6959 18.9692 13.6959H16.8692V8.79594Z"/>
</g>
<defs>
<clipPath id="clip0_1420_127">
<rect width="32" height="32" fill="white" transform="translate(0.535889 0.162598)"/>
</clipPath>
</defs>
</svg>
