<svg width="27" height="26" viewBox="0 0 27 26" fill="none" xmlns="http://www.w3.org/2000/svg">
<path d="M13.4692 2.82927C19.1392 2.82927 23.7359 7.42594 23.7359 13.0959C23.7359 18.7659 19.1392 23.3626 13.4692 23.3626C7.79922 23.3626 3.20255 18.7659 3.20255 13.0959C3.20255 12.8925 3.20815 12.6899 3.22029 12.4893C3.25855 11.8294 2.76295 11.2293 2.10122 11.2293C1.47215 11.2293 0.930821 11.6903 0.892554 12.3185C0.877621 12.5751 0.869221 12.8346 0.869221 13.0959C0.869221 20.0549 6.51029 25.6959 13.4692 25.6959C20.4282 25.6959 26.0692 20.0549 26.0692 13.0959C26.0692 6.13701 20.4282 0.495941 13.4692 0.495941C10.463 0.495941 7.70122 1.54874 5.53589 3.30621V2.59594C5.53589 2.28652 5.41297 1.98978 5.19418 1.77098C4.97539 1.55219 4.67864 1.42927 4.36922 1.42927C4.0598 1.42927 3.76306 1.55219 3.54426 1.77098C3.32547 1.98978 3.20255 2.28652 3.20255 2.59594V6.79594C3.20255 7.43994 3.72522 7.96261 4.36922 7.96261H8.56922C8.87864 7.96261 9.17539 7.83969 9.39418 7.6209C9.61297 7.40211 9.73589 7.10536 9.73589 6.79594C9.73589 6.48652 9.61297 6.18978 9.39418 5.97098C9.17539 5.75219 8.87864 5.62927 8.56922 5.62927H6.42255C8.26122 3.89327 10.7411 2.82927 13.4692 2.82927ZM14.8692 6.79594C14.8692 6.48652 14.7463 6.18978 14.5275 5.97098C14.3087 5.75219 14.012 5.62927 13.7026 5.62927C13.3931 5.62927 13.0964 5.75219 12.8776 5.97098C12.6588 6.18978 12.5359 6.48652 12.5359 6.79594V12.8626C12.5359 13.5066 13.0586 14.0293 13.7026 14.0293H16.9692C17.2786 14.0293 17.5754 13.9064 17.7942 13.6876C18.013 13.4688 18.1359 13.172 18.1359 12.8626C18.1359 12.5532 18.013 12.2564 17.7942 12.0376C17.5754 11.8189 17.2786 11.6959 16.9692 11.6959H14.8692V6.79594Z" fill="#677A90"/>
</svg>
