<svg width="33" height="33" viewBox="0 0 33 33"  xmlns="http://www.w3.org/2000/svg">
<path d="M18.7117 20.8882C19.0894 20.8882 19.4174 20.7495 19.6957 20.4722C19.973 20.194 20.1117 19.8659 20.1117 19.4882C20.1117 19.1104 19.973 18.7824 19.6957 18.5042C19.4174 18.2268 19.0894 18.0882 18.7117 18.0882C18.3339 18.0882 18.0063 18.2268 17.729 18.5042C17.4508 18.7824 17.3117 19.1104 17.3117 19.4882C17.3117 19.8659 17.4508 20.194 17.729 20.4722C18.0063 20.7495 18.3339 20.8882 18.7117 20.8882ZM17.7117 16.6215H19.7117C19.7117 15.9771 19.7783 15.5046 19.9117 15.2042C20.045 14.9046 20.3561 14.5104 20.845 14.0215C21.5117 13.3548 21.9561 12.8157 22.1783 12.4042C22.4006 11.9935 22.5117 11.5104 22.5117 10.9548C22.5117 9.95484 22.1614 9.13839 21.461 8.50551C20.7614 7.87173 19.845 7.55484 18.7117 7.55484C17.8006 7.55484 17.0063 7.8104 16.329 8.32151C15.6508 8.83262 15.1783 9.5104 14.9117 10.3548L16.7117 11.0882C16.9117 10.5326 17.1841 10.1157 17.529 9.83751C17.873 9.56017 18.2672 9.42151 18.7117 9.42151C19.245 9.42151 19.6783 9.57128 20.0117 9.87084C20.345 10.1713 20.5117 10.5771 20.5117 11.0882C20.5117 11.3993 20.4228 11.6935 20.245 11.9708C20.0672 12.2491 19.7561 12.5993 19.3117 13.0215C18.5783 13.666 18.1286 14.1713 17.9623 14.5375C17.7952 14.9046 17.7117 15.5993 17.7117 16.6215ZM10.7117 24.8882C9.97834 24.8882 9.35078 24.6273 8.829 24.1055C8.30634 23.5828 8.045 22.9548 8.045 22.2215V6.22151C8.045 5.48817 8.30634 4.86017 8.829 4.33751C9.35078 3.81573 9.97834 3.55484 10.7117 3.55484H26.7117C27.445 3.55484 28.073 3.81573 28.5957 4.33751C29.1174 4.86017 29.3783 5.48817 29.3783 6.22151V22.2215C29.3783 22.9548 29.1174 23.5828 28.5957 24.1055C28.073 24.6273 27.445 24.8882 26.7117 24.8882H10.7117ZM10.7117 22.2215H26.7117V6.22151H10.7117V22.2215ZM5.37834 30.2215C4.645 30.2215 4.01745 29.9606 3.49567 29.4388C2.973 28.9162 2.71167 28.2882 2.71167 27.5548V8.88817H5.37834V27.5548H24.045V30.2215H5.37834ZM10.7117 6.22151V22.2215V6.22151Z" fill="black"/>
</svg>
